<svg xmlns="http://www.w3.org/2000/svg" xml:space="preserve" style="enable-background:new 0 0 15 15" viewBox="0 0 15 15"><path d="M7.5 0C6 0 4.6.4 3.3 1.3c-1.2.8-2.2 2-2.8 3.4C0 6-.1 7.5.1 9c.3 1.5 1 2.8 2.1 3.8 1 1 2.4 1.8 3.8 2.1 1.5.3 3 .1 4.3-.4 1.4-.6 2.5-1.5 3.4-2.8.9-1.3 1.3-2.7 1.3-4.2 0-2-.8-3.9-2.2-5.3C11.4.8 9.5 0 7.5 0zM10 10c-.1.1-.3.2-.5.2s-.4-.1-.5-.2L7 8c-.1-.1-.2-.3-.2-.5V3.4c0-.2.1-.4.2-.5.1-.1.3-.2.5-.2s.4.1.5.2c.1.1.2.3.2.5v3.8L10 9.1c.1.1.2.3.2.5 0 .1 0 .3-.2.4z" style="fill:#fff"/></svg>