<svg xmlns="http://www.w3.org/2000/svg" xml:space="preserve" style="enable-background:new 0 0 11 15" viewBox="0 0 11 15"><path d="M1.6 1.5C2.7.5 4 0 5.5 0s2.8.5 3.9 1.5S11 3.7 11 5.2c0 .7-.2 1.6-.6 2.5-.4 1-.8 1.9-1.3 2.7-.6.8-1.1 1.6-1.7 2.3-.5.7-1 1.3-1.4 1.7l-.5.6c-.1-.1-.3-.4-.6-.6-.2-.3-.7-.8-1.3-1.6-.6-.8-1.2-1.6-1.7-2.4C1.4 9.6 1 8.7.6 7.8S0 6 0 5.2c0-1.4.5-2.6 1.6-3.7zm2.5 5.1c.4.4.9.5 1.4.5.5 0 1-.2 1.4-.5.4-.4.6-.8.6-1.3s-.2-1-.6-1.3c-.4-.4-.9-.6-1.4-.6-.5 0-1 .2-1.4.6-.4.3-.6.7-.6 1.2s.2 1 .6 1.4z" style="fill:#fff"/></svg>