<svg xmlns="http://www.w3.org/2000/svg" xml:space="preserve" style="enable-background:new 0 0 1073.4 628.5" viewBox="0 0 1073.4 628.5"><linearGradient id="a" x1="173.337" x2="445.803" y1="820.973" y2="265.164" gradientTransform="matrix(1 0 0 -1 0 862.038)" gradientUnits="userSpaceOnUse"><stop offset="0" style="stop-color:#01d9a2"/><stop offset="1" style="stop-color:#0974f4"/></linearGradient><path d="M587.5 182.7c75.2 153.5 11.8 338.9-141.7 414.1C292.3 672 106.9 608.6 31.7 455.1c-75.3-153.4-11.8-338.8 141.6-414 153.5-75.3 338.9-11.8 414.2 141.6z" style="fill:url(#a);fill-opacity:.2"/><linearGradient id="b" x1="543.277" x2="815.744" y1="1002.324" y2="446.513" gradientTransform="matrix(1 0 0 -1 0 862.038)" gradientUnits="userSpaceOnUse"><stop offset="0" style="stop-color:#01d9a2"/><stop offset="1" style="stop-color:#0974f4"/></linearGradient><path d="M1041.7 173.3c75.2 153.5 11.8 338.9-141.7 414.1-153.5 75.2-338.9 11.8-414.1-141.7-75.2-153.5-11.8-338.9 141.7-414.1 153.5-75.2 338.9-11.7 414.1 141.7z" style="fill:url(#b);fill-opacity:.2"/></svg>