<svg xmlns="http://www.w3.org/2000/svg" xml:space="preserve" style="enable-background:new 0 0 543 629" viewBox="0 0 543 629"><path d="M200.5 130.1V.5h-88.9V311c-9.4 3.1-18.4 7-27.1 11.6-26.1 13.8-46.6 33.1-61.6 58C8 405.4.5 433.5.5 465S8 524.6 23 549.4c15 24.9 35.5 44.3 61.6 58.4 26.4 13.8 56 20.7 89 20.7 28.7 0 54.7-5.1 77.7-15.3 23.1-10.2 42.3-24.9 57.6-44l.3-.4-.3-.3-56.5-51.1-.4-.3-.3.4c-20.2 24.4-44.8 36.5-73.6 36.5-17 0-32.1-3.7-45.5-11.1-13.1-7.4-23.3-17.8-30.7-31.2-7.1-13.7-10.7-29.2-10.7-46.8 0-17.5 3.6-33 10.7-46.3 7.4-13.7 17.7-24.2 30.7-31.6 13.4-7.4 28.5-11.1 45.5-11.1 14.4 0 26.9 5.3 39.4 12.5 5.3 3 10.5 6.4 15.9 9.8 1 .6 2 1.3 3 1.9 6.3 4 12.8 8.1 19.6 11.7 2.5 1.8 5.6 4.1 9.1 6.6 6.7 5 14.9 11 23.5 16.8 13.6 9.2 28.4 18 40.5 21.1 23.9 6.3 48.6 9.4 74.1 9.4 29.9 0 55.4-4.5 76.4-13.5 21-9.3 36.8-21.6 47.3-36.9 10.5-15.3 15.8-32.4 15.8-51.3 0-21.9-5.9-39.2-17.6-51.8-11.4-12.9-25.1-22.2-41-27.9-15.6-6-35.3-11.5-59.2-16.6-21.2-4.5-36.6-8.8-46.1-13-4.7-2.1-8.2-4.6-10.6-7.7-2.3-3-3.5-6.6-3.5-10.7 0-8.2 3.9-14.7 11.9-19.7 7.9-5.3 20.7-8 38.3-8 28 0 56.9 8 86.7 24.1l.5.3.2-.5 27.3-65.8.2-.4-.4-.2c-15.3-9-33-15.7-53-20.2-20.1-4.8-40.4-7.2-61.1-7.2-30.2 0-55.8 4.5-76.8 13.5-10.7 4.7-20.1 10.2-28.1 16.7l-18.6-29.1L419.6 1.3l.8-.8h-99l-.1.2-120.8 129.4z" style="fill:none;stroke:#01d9a2"/></svg>