<svg xmlns="http://www.w3.org/2000/svg" xml:space="preserve" style="enable-background:new 0 0 541 627" viewBox="0 0 541 627"><linearGradient id="a" x1="264.673" x2="264.673" y1="628" y2="1" gradientTransform="matrix(1 0 0 -1 0 628)" gradientUnits="userSpaceOnUse"><stop offset="0" style="stop-color:#0974f4"/><stop offset="1" style="stop-color:#01d9a2"/></linearGradient><path d="M232.2 199.7 199 235.1v78.4h-87.9V0H199v130.3L320.5 0h97.7L290 138.8l84.7 133-88.7 10.3-53.8-82.4z" style="fill:url(#a)"/><linearGradient id="b" x1="386.589" x2="386.589" y1="628" y2="1" gradientTransform="matrix(1 0 0 -1 0 628)" gradientUnits="userSpaceOnUse"><stop offset="0" style="stop-color:#0974f4"/><stop offset="1" style="stop-color:#01d9a2"/></linearGradient><path d="M402.1 464.4c-25.4 0-50.1-3.1-74-9.4-23.9-6.3-59-34.8-74-45.2l57.4-53.3c13 10.3 19.3 17.9 36.3 30.5 18.5 5.7 36.8 8.5 54.7 8.5 34.1 0 51.1-8.5 51.1-25.5 0-9-4.9-15.5-14.8-19.7-9.6-4.5-25.1-9.1-46.6-13.9-23.6-5.1-43.3-10.5-59.2-16.1-15.8-6-31.7-15.6-40-27.9-10.8-15.9-51.4-76.5-60.8-94.4 0-19.1 48.3 5.8 58.7-9.4 10.5-15.5 26-27.8 46.6-36.7 20.9-9 46.5-13.4 76.6-13.4 20.6 0 40.9 2.4 61 7.2 20 4.5 37.7 11.2 52.9 20.2l-27.3 65.8c-29.9-16.1-58.9-24.2-87-24.2-17.6 0-30.5 2.7-38.5 8.1-8.1 5.1-12.1 11.8-12.1 20.2s4.8 14.6 14.3 18.8 25 8.5 46.2 13c23.9 5.1 43.6 10.6 59.2 16.6 15.8 5.7 29.4 14.9 40.8 27.8 11.7 12.5 17.5 29.7 17.5 51.5 0 18.8-5.2 35.8-15.7 51.1-10.5 15.2-26.1 27.5-47.1 36.7-21 8.6-46.4 13.1-76.2 13.1z" style="fill:url(#b)"/><linearGradient id="c" x1="155.98" x2="155.98" y1="628" y2="1" gradientTransform="matrix(1 0 0 -1 0 628)" gradientUnits="userSpaceOnUse"><stop offset="0" style="stop-color:#0974f4"/><stop offset="1" style="stop-color:#01d9a2"/></linearGradient><path d="M172.6 627c-32.9 0-62.5-6.9-88.7-20.6-26-14-46.5-33.4-61.4-58.2C7.5 523.4 0 495.3 0 464s7.5-59.4 22.4-84.2c14.9-24.8 35.4-44 61.4-57.8 26.3-14 55.9-21 88.7-21 28.7 0 54.5 5.1 77.5 15.2 23 10.2 38.1 22.8 61.9 40.8l-56.5 53.7c-27.8-14.8-49.5-36.3-78.4-36.3-17 0-32.3 3.7-45.7 11.2-13.1 7.5-23.5 18.1-30.9 31.8-7.2 13.4-10.8 29-10.8 46.6s3.6 33.3 10.8 47c7.5 13.4 17.8 23.9 30.9 31.3 13.4 7.5 28.7 11.2 45.7 11.2 29 0 53.6-12.2 74-36.7l56.5 51.1c-15.2 19.1-34.4 33.7-57.4 43.9-23 10.1-48.8 15.2-77.5 15.2z" style="fill:url(#c)"/></svg>