<svg xmlns="http://www.w3.org/2000/svg" xml:space="preserve" style="enable-background:new 0 0 736 541" viewBox="0 0 736 541"><linearGradient id="a" x1="69.468" x2="69.468" y1="542" y2="1" gradientTransform="matrix(1 0 0 -1 0 542)" gradientUnits="userSpaceOnUse"><stop offset="0" style="stop-color:#0974f4"/><stop offset="1" style="stop-color:#01d9a2"/></linearGradient><path d="M131.6 6.6 95.3 65.3a37.3 37.3 0 0 1-5.8 7.5c-2.2 2-4.2 3.6-6.3 4.7v.6c2 1.1 4.4 3 7.1 5.6 2.7 2.4 4.9 5.1 6.5 8.1l37.1 62.5H89.1L46.6 77.1 88.2 6.6h43.4zm-86.3 0V46c0 5.1-.5 10.4-1.5 15.8-.9 5.3-2.2 10.3-4.1 15 1.4 4.4 2.7 9.2 3.9 14.4 1.2 5 1.7 9.6 1.7 13.7v49.5H5V6.6h40.3zm14 57.7V91H33.5V64.3h25.8z" style="fill:url(#a)"/><linearGradient id="b" x1="164.816" x2="164.816" y1="542" y2="1" gradientTransform="matrix(1 0 0 -1 0 542)" gradientUnits="userSpaceOnUse"><stop offset="0" style="stop-color:#0974f4"/><stop offset="1" style="stop-color:#01d9a2"/></linearGradient><path d="M184.4 48v106.5h-39V48h39zM173.2 0c7.6 0 11.4 3.9 11.4 11.6v11.1c0 7.7-3.8 11.6-11.4 11.6h-16.8c-7.6 0-11.4-3.9-11.4-11.6V11.6C145 3.9 148.8 0 156.4 0h16.8z" style="fill:url(#b)"/><linearGradient id="c" x1="262.599" x2="262.599" y1="542" y2="1" gradientTransform="matrix(1 0 0 -1 0 542)" gradientUnits="userSpaceOnUse"><stop offset="0" style="stop-color:#0974f4"/><stop offset="1" style="stop-color:#01d9a2"/></linearGradient><path d="M286.9 45c20.7 0 31 9.9 31 29.8v79.7h-39.2V87c0-3.4-.7-5.8-2.2-7.1-1.3-1.3-3.7-1.9-7.1-1.9-3.6 0-7.5.5-11.6 1.5-4 1-9.1 2.9-15.3 5.6L240.6 65c7.5-6.6 15.2-11.5 23.1-14.8 7.8-3.5 15.5-5.2 23.2-5.2zm-48.6 3 4.7 21.4 3.4 2.8v82.2h-39.2V48h31.1z" style="fill:url(#c)"/><linearGradient id="d" x1="393.216" x2="393.216" y1="542" y2="1" gradientTransform="matrix(1 0 0 -1 0 542)" gradientUnits="userSpaceOnUse"><stop offset="0" style="stop-color:#0974f4"/><stop offset="1" style="stop-color:#01d9a2"/></linearGradient><path d="M393.2 45c14.1 0 25.4 1.9 33.9 5.6 8.5 3.6 14.6 9.5 18.3 17.8 3.7 8.1 5.6 19.1 5.6 33 0 13.7-1.9 24.6-5.6 32.8-3.7 8-9.8 13.9-18.3 17.6-8.5 3.6-19.8 5.4-33.9 5.4-14.1 0-25.4-1.8-33.9-5.4-8.5-3.7-14.6-9.6-18.3-17.6-3.7-8.1-5.6-19.1-5.6-32.8 0-13.9 1.9-24.8 5.6-33 3.7-8.3 9.8-14.2 18.3-17.8 8.5-3.8 19.8-5.6 33.9-5.6zm0 27.2c-4.5 0-7.9.8-10.3 2.4-2.3 1.6-4 4.4-5 8.6-1 4.1-1.5 10.2-1.5 18.2 0 7.9.5 13.9 1.5 18s2.7 7 5 8.6c2.4 1.4 5.9 2.1 10.3 2.1s7.9-.7 10.4-2.1c2.4-1.6 4.1-4.4 5-8.6 1-4.1 1.5-10.1 1.5-18 0-8-.5-14.1-1.5-18.2-.9-4.1-2.5-7-5-8.6-2.5-1.6-5.9-2.4-10.4-2.4z" style="fill:url(#d)"/><linearGradient id="e" x1="57.325" x2="57.325" y1="542" y2="1" gradientTransform="matrix(1 0 0 -1 0 542)" gradientUnits="userSpaceOnUse"><stop offset="0" style="stop-color:#0974f4"/><stop offset="1" style="stop-color:#01d9a2"/></linearGradient><path d="M58.2 176c7.6.1 16 .6 25.2 1.5s18.1 2.7 26.7 5.4l-2.6 26.3c-6.3-.1-14.1-.3-23.3-.4-9.1-.1-18-.2-26.7-.2-3.3 0-6.1.1-8.4.4-2.2.1-4 .6-5.4 1.3-1.3.6-2.2 1.5-2.8 2.8-.6 1.2-.9 2.8-.9 5 0 3.5 1 6.1 3 8 2.2 1.7 5.9 3.5 11.2 5.4L82 241.9c12.1 4.7 20.5 10.6 25.2 17.7 4.9 6.9 7.3 15.9 7.3 27 0 8.3-1 15.4-3 21.2-2 5.8-5.3 10.3-9.9 13.6-4.5 3.3-10.4 5.8-17.9 7.3-7.3 1.6-16.5 2.4-27.4 2.4-5 0-12.4-.4-22.2-1.1-9.6-.7-20.5-2.6-32.8-5.6l2.4-28.5c8.6.1 16.2.4 22.8.6 6.8.1 12.6.3 17.5.4h11.9c4.9 0 8.6-.2 11.2-.6 2.6-.6 4.4-1.5 5.4-2.8 1-1.4 1.5-3.5 1.5-6 0-2.4-.4-4.4-1.1-5.8-.7-1.4-2-2.7-3.9-3.7-1.7-1-4.1-2-7.1-3l-29.6-12c-11.8-4.9-20.1-10.7-25-17.5C2.4 238.7 0 229.9 0 219c0-8.6 1.1-15.7 3.2-21.2 2.2-5.5 5.5-9.8 9.9-13 4.6-3.2 10.6-5.4 18.1-6.7 7.5-1.4 16.5-2.1 27-2.1z" style="fill:url(#e)"/><linearGradient id="f" x1="166.728" x2="166.728" y1="542" y2="1" gradientTransform="matrix(1 0 0 -1 0 542)" gradientUnits="userSpaceOnUse"><stop offset="0" style="stop-color:#0974f4"/><stop offset="1" style="stop-color:#01d9a2"/></linearGradient><path d="M181.6 191.8v99.3c0 3.2.8 5.5 2.4 6.9 1.6 1.4 4.2 2.2 8 2.2h12.5l4.3 25.7c-2.9 1.2-6.4 2.1-10.6 2.8-4 .7-8.1 1.2-12.3 1.5-4.2.4-7.8.6-10.8.6-10.1 0-18-2.6-23.9-7.8-5.7-5.3-8.6-12.7-8.6-22l-.2-109.2h39.2zm27.8 28.9v24.4h-85.3v-23.3l20.7-1.1h64.6z" style="fill:url(#f)"/><linearGradient id="g" x1="264.957" x2="264.957" y1="542" y2="1" gradientTransform="matrix(1 0 0 -1 0 542)" gradientUnits="userSpaceOnUse"><stop offset="0" style="stop-color:#0974f4"/><stop offset="1" style="stop-color:#01d9a2"/></linearGradient><path d="m254.2 220.7 4.7 21.6 3.9 2.8V328h-39.2V220.7h30.6zm52.1-3-3.4 36.1h-10.3c-4.3 0-9.1.4-14.2 1.3-5.2.9-11.7 2.3-19.6 4.3l-2.4-21.4c7.2-6.8 14.5-11.8 22-15.1 7.6-3.5 14.9-5.2 22-5.2h5.9z" style="fill:url(#g)"/><linearGradient id="h" x1="368.957" x2="368.957" y1="542" y2="1" gradientTransform="matrix(1 0 0 -1 0 542)" gradientUnits="userSpaceOnUse"><stop offset="0" style="stop-color:#0974f4"/><stop offset="1" style="stop-color:#01d9a2"/></linearGradient><path d="M371.3 217.7c19.3 0 33 3.2 41.2 9.5s12.3 15.7 12.3 28.1c.1 9.9-2.6 17.2-8.2 21.8-5.6 4.6-15.5 6.9-29.7 6.9h-58.6v-19.6h47.6c4.9 0 8-.7 9.3-2.2 1.4-1.4 2.2-4 2.2-7.8-.1-4.2-1.3-7-3.4-8.4s-5.9-2.2-11.2-2.2c-5-.1-8.9.4-11.6 1.7-2.6 1.3-4.4 3.9-5.4 7.8s-1.5 9.7-1.5 17.5c0 7.8.6 13.7 1.7 17.9 1.3 4.2 3.5 7.1 6.7 8.9 3.3 1.7 7.9 2.6 13.8 2.6 4.6 0 10.6-.1 18.1-.4 7.6-.4 15.6-1.1 23.9-1.9l3.7 23.7c-4.6 2.3-9.7 4.1-15.3 5.4-5.5 1.3-11.1 2.2-17 2.8-5.9.6-11.8.9-17.7.9-14.4 0-25.9-2-34.5-6-8.6-4-14.9-10.1-18.7-18.3-3.7-8.3-5.6-18.8-5.6-31.3 0-14.1 1.9-25.3 5.8-33.7s10.1-14.3 18.5-17.9c8.4-4 19.7-5.8 33.6-5.8z" style="fill:url(#h)"/><linearGradient id="i" x1="491.496" x2="491.496" y1="542" y2="1" gradientTransform="matrix(1 0 0 -1 0 542)" gradientUnits="userSpaceOnUse"><stop offset="0" style="stop-color:#0974f4"/><stop offset="1" style="stop-color:#01d9a2"/></linearGradient><path d="M501.3 217.7c9.6 0 17.7 1.3 24.4 3.9 6.8 2.6 11.9 6.9 15.3 13 3.4 6 5.2 14.4 5.2 25V328H515l-5.4-23.1-2.6-3.9v-41.7c-.1-4.5-1.3-7.6-3.4-9.5-2-2-5.7-3-11.2-3-5.6 0-12.5.1-20.7.4-8.2.1-16.7.5-25.6 1.1l-3.4-25.3c5.3-1 11.5-1.9 18.5-2.6 7.2-.9 14.4-1.5 21.6-1.9 6.9-.5 13.2-.8 18.5-.8zm29.3 44.4-.2 19.9h-45.9c-3.3.1-5.7 1-7.3 2.6-1.4 1.4-2.2 3.5-2.2 6v4.1c0 2.7.9 4.9 2.6 6.5 1.9 1.4 4.6 2.2 8.2 2.2s7.4-.8 11.4-2.4c4-1.6 8-3.7 11.9-6.5 3.9-2.7 7.3-5.7 10.1-8.9v13.8c-1.2 2.3-2.9 5.2-5.4 8.6-2.3 3.5-5.3 7-9.1 10.6-3.7 3.5-8.3 6.3-13.6 8.6-5.3 2.3-11.5 3.5-18.5 3.5-6.5 0-12.4-1.2-17.9-3.5-5.5-2.3-9.8-5.7-13.1-10.1-3.2-4.5-4.7-10.1-4.7-16.8v-10.8c0-8.6 3-15.3 9.1-20.1 6.2-4.9 14.5-7.3 25-7.3h59.6z" style="fill:url(#i)"/><linearGradient id="j" x1="651.521" x2="651.521" y1="542" y2="1" gradientTransform="matrix(1 0 0 -1 0 542)" gradientUnits="userSpaceOnUse"><stop offset="0" style="stop-color:#0974f4"/><stop offset="1" style="stop-color:#01d9a2"/></linearGradient><path d="M705.6 217.7c9.9 0 17.5 2.6 22.6 7.8 5.2 5 7.8 12.4 7.8 22.2V328h-39v-68c0-3.3-.6-5.6-1.9-6.9-1.3-1.4-3.7-2.2-7.1-2.2-1.9 0-3.7.2-5.6.6-1.9.3-4 .9-6.5 1.9-2.3 1-5.2 2.5-8.8 4.5l-2.2-20.1c6.6-6.8 13.1-11.8 19.4-15.1 6.3-3.3 13.4-5 21.3-5zm-107.7 3 4.3 21.6 3.9 2.8V328h-39V220.7h30.8zm42.6-3c9.8 0 17.2 2.5 22.2 7.6 5 5 7.6 12.5 7.8 22.5V328h-37.7v-68c0-3.3-.8-5.6-2.4-6.9-1.4-1.4-3.8-2.2-7.1-2.2-1.7 0-3.6.2-5.6.6-1.9.3-4 .9-6.5 1.9-2.4 1-5.5 2.5-9.3 4.5l-2.2-20.1c6.6-6.8 13-11.8 19.2-15.1 6.4-3.3 13.6-5 21.6-5z" style="fill:url(#j)"/><linearGradient id="k" x1="62.11" x2="62.11" y1="542" y2="1" gradientTransform="matrix(1 0 0 -1 0 542)" gradientUnits="userSpaceOnUse"><stop offset="0" style="stop-color:#0974f4"/><stop offset="1" style="stop-color:#01d9a2"/></linearGradient><path d="M68.1 349c7.3 0 13.8.2 19.4.6 5.8.4 11.1 1.1 16 1.9 5 .7 10 1.8 14.9 3.2l-3 29.4c-5.2-.1-10.2-.2-15.1-.2-4.9-.1-9.8-.2-14.9-.2-5-.1-10.6-.2-16.8-.2-5 0-9.3.6-12.7 1.7-3.3 1.2-6 3.3-8 6.5-1.9 3.2-3.2 7.6-4.1 13.4-.9 5.6-1.3 12.8-1.3 21.6 0 11.1.6 19.7 1.9 25.9 1.4 6.2 3.7 10.5 6.9 13 3.2 2.4 7.5 3.7 13.2 3.7 3.7 0 7.1-.2 10.1-.6 3.2-.6 6-1.3 8.4-2.2 2.6-1 4.8-1.9 6.7-2.6l4.1 17.7c-1.9 2.9-4.9 6.1-9.1 9.7-4 3.5-9.1 6.5-15.1 9.1-6 2.4-13 3.7-20.9 3.7-11.2 0-20.5-2.6-27.8-7.8-7.2-5.3-12.5-13.7-16-25.1-3.3-11.4-5-26.3-5-44.7 0-19.3 2.2-34.6 6.5-45.8 4.5-11.4 11.6-19.5 21.6-24.4 10.1-4.9 23.5-7.3 40.1-7.3zm56.1 66.3V501H94.5l-5.4-22.9-3.7-7.1v-55.7h38.8z" style="fill:url(#k)"/><linearGradient id="l" x1="186.153" x2="186.153" y1="542" y2="1" gradientTransform="matrix(1 0 0 -1 0 542)" gradientUnits="userSpaceOnUse"><stop offset="0" style="stop-color:#0974f4"/><stop offset="1" style="stop-color:#01d9a2"/></linearGradient><path d="m175.4 393.7 4.7 21.6 3.9 2.8V501h-39.2V393.7h30.6zm52.2-3-3.5 36.1h-10.4c-4.3 0-9.1.4-14.2 1.3-5.2.9-11.7 2.3-19.6 4.3l-2.4-21.4c7.2-6.8 14.5-11.8 22-15.1 7.6-3.5 15-5.2 22-5.2h6.1z" style="fill:url(#l)"/><linearGradient id="m" x1="292.38" x2="292.38" y1="542" y2="1" gradientTransform="matrix(1 0 0 -1 0 542)" gradientUnits="userSpaceOnUse"><stop offset="0" style="stop-color:#0974f4"/><stop offset="1" style="stop-color:#01d9a2"/></linearGradient><path d="M292.4 390.7c14.1 0 25.4 1.9 33.9 5.6 8.5 3.6 14.6 9.6 18.3 17.9 3.7 8.2 5.6 19.3 5.6 33.3 0 13.8-1.9 24.8-5.6 33-3.7 8.1-9.8 14-18.3 17.7-8.5 3.6-19.8 5.4-33.9 5.4-14.1 0-25.4-1.8-33.9-5.4-8.5-3.7-14.6-9.6-18.3-17.7-3.7-8.2-5.6-19.2-5.6-33 0-14 1.9-25.1 5.6-33.3 3.7-8.4 9.8-14.3 18.3-17.9 8.5-3.7 19.8-5.6 33.9-5.6zm0 27.4c-4.5 0-7.9.8-10.4 2.4-2.3 1.6-4 4.5-5 8.6-1 4.2-1.5 10.3-1.5 18.4 0 7.9.5 14 1.5 18.1 1 4.2 2.7 7.1 5 8.6 2.4 1.4 5.9 2.2 10.4 2.2s7.9-.7 10.4-2.2c2.4-1.6 4.1-4.5 5-8.6 1-4.2 1.5-10.2 1.5-18.1 0-8.1-.5-14.2-1.5-18.4-.9-4.2-2.5-7.1-5-8.6-2.5-1.6-6-2.4-10.4-2.4z" style="fill:url(#m)"/><linearGradient id="n" x1="421.903" x2="421.903" y1="542" y2="1" gradientTransform="matrix(1 0 0 -1 0 542)" gradientUnits="userSpaceOnUse"><stop offset="0" style="stop-color:#0974f4"/><stop offset="1" style="stop-color:#01d9a2"/></linearGradient><path d="M406.6 393.7v68c-.1 3.3.6 5.7 2.2 7.1 1.6 1.4 4.2 2.2 7.8 2.2 3.5 0 7-.5 10.6-1.5 3.7-1 8.4-2.9 14-5.6l2.6 20.1c-7.5 6.8-14.9 11.8-22.2 15.1-7.3 3.3-15 5-22.9 5-20.8 0-31.3-10-31.3-30v-80.3h39.2zm69.9 0V501h-30.8l-4.7-21.6-3.9-2.6v-83.1h39.4z" style="fill:url(#n)"/><linearGradient id="o" x1="555.282" x2="555.282" y1="542" y2="1" gradientTransform="matrix(1 0 0 -1 0 542)" gradientUnits="userSpaceOnUse"><stop offset="0" style="stop-color:#0974f4"/><stop offset="1" style="stop-color:#01d9a2"/></linearGradient><path d="M573.8 391.1c13.8 0 23.6 5 29.3 14.9 5.9 9.9 8.8 24.1 8.8 42.5 0 14.5-1.6 25.8-4.7 33.9-3 7.9-7.5 13.5-13.6 16.8-5.9 3.2-13.3 4.8-22.2 4.8-7.9 0-15.4-1.2-22.4-3.5-7-2.4-12.9-6.4-17.7-11.9l2.6-16.2c3.7 1.2 7.2 2.3 10.4 3.5 3.3 1 7.3 1.5 12.1 1.5 3.7 0 6.7-.6 8.8-1.9 2.3-1.4 4-4.2 5-8.2 1-4.2 1.5-10.4 1.5-18.6s-.5-14.4-1.5-18.6c-1-4.2-2.6-6.9-4.7-8.2-2-1.3-4.7-1.9-8-1.9-4.3 0-7.9.6-10.8 1.9-2.9 1.2-6.1 2.8-9.7 5l-5.2-16c2.3-3.7 5.6-7.1 9.9-10.1 4.3-3 9.2-5.4 14.7-7.1 5.6-1.7 11.4-2.6 17.4-2.6zm-43.8 2.6 3.7 18.1 4.1 3.2v70.6l-1.3 2.6c.4 4.5.7 9.2.9 14.3.3 5.2.4 10.2.4 14.9V541h-39.2V393.7H530z" style="fill:url(#o)"/></svg>