<svg xmlns="http://www.w3.org/2000/svg" xml:space="preserve" style="enable-background:new 0 0 178 52" viewBox="0 0 178 52"><path d="m27.2 11.3 5.4 9.4h1.8c1.6 0 3.1 0 4.6.1L27.2 0l-13 22.9c2.3-.5 4.6-1 7.2-1.3l5.8-10.3zm-9.6 9.1 9.6-17L36 19H33.6L27.2 7.8 20.3 20c-.9.1-1.8.3-2.7.4zM19.3 52c-6.7-3-10.8-7-10.8-11.4 0-1.5.5-3 1.3-4.2h38.1L41 24.2c2.6-.2 5.4-.3 8.2-.3 3.6 0 7.3.2 10.9.6l-.6-.2.6.2.7.1c-.6-.2-1.2-.3-1.9-.5-6.3-1.4-12.7-2.1-19.1-2h-.1c-1.6 0-3.1 0-4.7.1-.5 0-1 .1-1.5.1-4.5.3-9 .9-13.4 1.9-.4.1-.7.2-1 .3-2.3.6-4.5 1.3-6.7 2.1C4.7 29.4 0 33.5 0 38.1 0 44 7.7 49.2 19.3 52zm15.6-27.2 3.3 5.9h-22c4.7-2.7 11.2-4.7 18.7-5.9zM73.8 24.8l.9-.6.6-.9c.1-.3.2-.7.2-1.1v-.8h-1.7v.6c0 .2 0 .4-.1.6-.1.1-.1.3-.3.4-.1.1-.2.2-.4.2-.1 0-.2.1-.4.1s-.3 0-.5-.1c-.1-.1-.3-.2-.4-.3-.2-.3-.2-.6-.2-.9v-6.3c0-.4.1-.7.2-1 .1-.1.2-.3.4-.3.2-.1.3-.1.5-.1s.3 0 .4.1c.1.1.3.2.3.3.2.3.3.6.3.9v.6h1.7v-.7c0-.4-.1-.8-.2-1.2-.1-.3-.3-.7-.6-.9-.3-.3-.6-.5-.9-.6-.3-.1-.7-.2-1.1-.2-.4 0-.8.1-1.1.2-.3.1-.6.3-.9.6l-.6.9c-.1.4-.2.7-.2 1.1v6.8c0 .5.1 1 .3 1.4.2.3.4.6.7.9.3.2.6.4.9.5.3.1.7.1 1 .1.5 0 .9-.1 1.2-.3zM89.3 15.6c0-.5-.1-.9-.3-1.3-.2-.4-.4-.7-.7-.9l-.9-.6c-.3-.1-.7-.2-1-.2-.4 0-.7.1-1 .2-.3.1-.7.3-.9.6-.3.3-.5.6-.7.9-.2.4-.3.9-.2 1.3v6.5c0 .5.1.9.2 1.3.2.3.4.7.7.9.3.3.6.4.9.6.3.1.7.2 1 .2.4 0 .7-.1 1-.2.3-.1.7-.3.9-.6.3-.3.5-.6.7-.9.2-.4.3-.9.3-1.3v-6.5zm-1.7 6.5c0 .2 0 .3-.1.5s-.2.3-.3.4c-.2.2-.5.3-.8.3-.3 0-.6-.1-.8-.3-.1-.1-.2-.3-.3-.4-.1-.2-.1-.3-.1-.5v-6.5c0-.2 0-.3.1-.5s.2-.3.3-.4c.2-.2.5-.3.8-.3.3 0 .6.1.8.3.1.1.2.3.3.4.1.2.1.3.1.5v6.5zM101.5 19.2l-2.2-6.5h-1.7V25h1.7v-7.5l1.7 5.3h.9l1.7-5.3V25h1.7V12.7h-1.7l-2.1 6.5zM118.6 13.5c-.3-.3-.6-.5-1-.7-.4-.1-.8-.2-1.2-.2h-2.6V25h1.7v-4.8h.9c.5 0 1.1-.1 1.5-.3.4-.2.7-.5.9-.9.2-.3.3-.7.4-1.1.1-.5.1-.9.1-1.4 0-.6 0-1.2-.2-1.7 0-.5-.2-.9-.5-1.3zm-.9 3.8c0 .2-.1.4-.2.6-.1.2-.2.3-.4.4-.3.1-.5.2-.8.2h-.8v-4.2h.9c.3 0 .5 0 .8.2.2.1.3.3.4.4.1.2.1.4.2.7v.8c-.1.3-.1.6-.1.9zM128.7 12.7 126 25h1.7l.5-2.6h2.3l.5 2.6h1.7L130 12.7h-1.3zm-.2 8 .8-4.4.8 4.4h-1.6zM146.4 25V12.7h-1.7v7.4l-2.6-7.4h-1.7V25h1.7v-7.4l2.6 7.4h1.7zM158 25v-5.2l2.4-7.1h-1.8l-1.4 4.9-1.4-4.9H154l2.4 7.1V25h1.6zM71.4 31.2l-1.5 6.7h.7l.3-1.5h1.6l.3 1.5h.7L72 31.2h-.6zm-.3 4.3.6-2.9.6 2.9h-1.2zM78.6 32.7c.1-.1.2-.3.3-.3.1-.1.3-.1.4-.1.2 0 .4.1.5.3.1.2.2.4.3.7h.7c-.1-.5-.2-1-.5-1.4-.2-.2-.4-.4-.6-.5-.2-.1-.5-.1-.7-.1-.2.1-.5.2-.6.4-.2.2-.3.5-.5.8-.1.2-.1.4-.1.6v3c0 .1 0 .2.1.4l.1.3c.1.3.3.6.5.8.3.3.6.4.9.4.4 0 .8-.2 1.1-.7.3-.4.5-1 .5-1.7v-1.3h-1.6v.9h.9v.3c0 .4-.1.7-.3 1l-.3.3c-.1.1-.2.1-.3.1-.1 0-.3 0-.4-.2l-.3-.3c-.1-.2-.2-.3-.2-.5-.1-.9-.1-1.7 0-2.6 0-.3 0-.4.1-.6zM85.6 31.2v6.7h2.6v-1h-2v-5.7h-.6zM93.4 31.2h-1v6.7h1v-6.7zM100.5 36l-2.2-4.7h-.7V38h.7v-4.7l2.2 4.7h.7v-6.7h-.7V36zM108.5 32.2v-1h-2.6v6.7h2.6v-1h-2v-2h1.7V34h-1.7v-1.9h2zM118.6 31.6c-.2.2-.4.5-.5.8-.1.2-.1.4-.1.6 0 .5-.1 1 0 1.5V36c0 .1 0 .2.1.4l.1.3c.1.3.3.6.5.8.3.3.6.4.9.4.4 0 .8-.2 1.1-.7.3-.4.5-1 .5-1.7v-1.3h-1.6v.9h.9v.3c0 .4-.1.7-.3 1l-.3.3c-.1.1-.2.1-.3.1-.1 0-.3 0-.4-.2l-.3-.3c-.1-.2-.1-.3-.2-.5-.1-.9-.1-1.7 0-2.6 0-.2.1-.4.2-.5.1-.1.2-.3.3-.3.1-.1.3-.1.4-.1.2 0 .4.1.5.3.1.2.2.4.3.7h.7c-.1-.5-.2-1-.5-1.4-.3-.3-.6-.5-.9-.6-.4-.1-.8 0-1.1.3zM125.4 32.4c-.1.2-.1.4-.1.6 0 .5-.1 1 0 1.5V36c0 .1 0 .2.1.4l.1.3c.1.3.3.6.5.8.3.3.6.4.9.4.3 0 .6-.1.9-.4.2-.2.4-.5.5-.8.1-.2.1-.4.1-.6v-3c0-.2-.1-.4-.1-.6-.1-.3-.3-.6-.5-.8-.3-.3-.6-.4-.9-.4-.3 0-.6.1-.9.4-.3.1-.4.4-.6.7zm.6.8c0-.2.1-.4.2-.5.1-.2.2-.3.3-.4.1-.1.3-.1.4-.1.1 0 .3 0 .4.1l.3.3c.1.2.2.3.2.5.1.9.1 1.8 0 2.6 0 .2-.1.4-.2.6l-.3.3c-.1.1-.3.2-.4.2-.1 0-.3 0-.4-.2l-.3-.3c-.1-.2-.1-.3-.2-.6-.1-.7-.1-1.5 0-2.5zM133.1 37.9h2.6v-1h-2v-2h1.7V34h-1.7v-1.9h2v-1h-2.6v6.8zM141.5 36.9c-.4 0-.9-.2-1.2-.7l-.4.8c.5.6 1 .9 1.6.9 1 0 1.5-.6 1.5-1.9 0-.4-.1-.9-.3-1.2-.2-.4-.5-.6-.9-.7l-.5-.1c-.2 0-.3-.1-.5-.3 0-.1-.1-.1-.1-.2v-.3c0-.1 0-.3.1-.4 0-.1.1-.2.2-.3.1-.2.3-.2.5-.2.4 0 .7.2 1 .5l.4-.8c-.4-.4-.9-.7-1.4-.7-.4 0-.7.2-1 .5l-.3.6c-.1.2-.1.5-.1.8 0 .4.1.9.3 1.2.2.4.5.6.8.6l.6.1c.4.1.6.4.6.9s-.4.9-.9.9zM152.9 37.9h.7V35h1.8v2.9h.7v-6.7h-.7v2.9h-1.8v-2.9h-.7v6.7zM163.4 32.2v-1h-2.6v6.7h2.6v-1h-2v-2h1.7V34h-1.7v-1.9h2zM170.5 33.1c0-.3 0-.5-.1-.8-.1-.2-.2-.5-.3-.6-.2-.3-.6-.5-.9-.4h-1.7V38h.7v-3h.8l.9 2.8h.8l-1-3c.3-.1.5-.4.6-.7.2-.2.2-.6.2-1zm-2.3 1v-2h1c.2 0 .3.1.5.2.1.1.1.2.2.3 0 .1.1.3 0 .4v.4c0 .1-.1.2-.1.3-.1.2-.3.3-.5.3h-1.1zM175.4 37.9h2.6v-1h-2v-2h1.7V34H176v-1.9h2v-1h-2.6v6.8z" style="fill:#0523f8"/></svg>