<svg xmlns="http://www.w3.org/2000/svg" xml:space="preserve" style="enable-background:new 0 0 40 30.7" viewBox="0 0 40 30.7"><path d="M35.4 0H4.6C2.1 0 0 2.1 0 4.6v17.3c0 2.6 2.1 4.6 4.6 4.6h11.3l-4.1 2.2c-1.2.6-.4 2.4.8 1.8.1-.1 7.2-3.8 7.3-3.9l7.2 3.8c.1.1.3.1.5.1 1 0 1.4-1.5.5-1.9L24 26.4h11.3c2.6 0 4.6-2.1 4.6-4.6V4.6c.1-2.5-2-4.6-4.5-4.6zM38 21.9c0 1.4-1.2 2.6-2.6 2.6H4.6c-1.4 0-2.6-1.2-2.6-2.6V4.6C2 3.2 3.2 2 4.6 2h30.7C36.8 2 38 3.2 38 4.6v17.3z" style="fill:#0974f4"/><path d="M18.2 8.6h-7.7c-.6 0-1 .5-1 1 0 .6.5 1 1 1h2.8V17c0 .6.5 1 1 1 .6 0 1-.5 1-1v-6.3h2.8c1.4-.1 1.4-2.1.1-2.1zM29.9 8.7c-.5-.2-1.1 0-1.4.5l-2.7 5.5-2.7-5.5c-.6-1.2-2.4-.3-1.8.9l3.6 7.4c.3.7 1.5.7 1.8 0l3.6-7.4c.3-.6.1-1.2-.4-1.4z" style="fill:#01d9a2"/></svg>