<svg xmlns="http://www.w3.org/2000/svg" xml:space="preserve" style="enable-background:new 0 0 40 40" viewBox="0 0 40 40"><path d="M32.7 27.2H7.3c-1.3 0-2.4-1.1-2.4-2.4V13.6c0-1.3 1.1-2.4 2.4-2.4h25.4c1.3 0 2.4 1.1 2.4 2.4v11.1c.1 1.4-1 2.5-2.4 2.5zM7.3 12.9c-.4 0-.7.3-.7.7v11.1c0 .4.3.7.7.7h25.4c.4 0 .7-.3.7-.7V13.6c0-.4-.3-.7-.7-.7H7.3zM34.3 33.6h-4.5c-.5 0-.9-.4-.9-.9s.4-.9.9-.9h4.5c.5 0 .9.4.9.9s-.4.9-.9.9zM24.5 33.6h-10c-.5 0-.9-.4-.9-.9s.4-.9.9-.9h10c.5 0 .9.4.9.9-.1.5-.4.9-.9.9z" style="fill:#0974f4"/><path d="M9.7 35.2c-.5 0-.9-.4-.9-.9v-3.2c0-.5.4-.9.9-.9s.9.4.9.9v3.2c-.1.5-.4.9-.9.9zM5.7 35.2c-.5 0-.9-.4-.9-.9v-3.2c0-.5.4-.9.9-.9s.9.4.9.9v3.2c0 .5-.4.9-.9.9zM17.6 23.2c-.2 0-.3 0-.5-.1-.3-.2-.4-.4-.4-.7V16c0-.3.2-.6.4-.7.3-.2.6-.2.8 0l6.4 3.2c.3.1.5.4.5.8 0 .3-.2.6-.5.8L18 23.2h-.4zm.9-5.8V21l3.6-1.8-3.6-1.8zM27.1 35.9c-1.8 0-3.2-1.5-3.2-3.2 0-1.8 1.5-3.2 3.2-3.2 1.8 0 3.2 1.5 3.2 3.2.1 1.8-1.4 3.2-3.2 3.2zm0-4.7c-.8 0-1.5.7-1.5 1.5s.7 1.5 1.5 1.5 1.5-.7 1.5-1.5c.1-.8-.6-1.5-1.5-1.5zM29.6 8.1c-.5 0-.9-.4-.9-.9V.9c0-.5.4-.9.9-.9s.9.4.9.9v6.4c0 .4-.4.8-.9.8z" style="fill:#01d9a2"/><path d="M36 0H4C1.8 0 0 1.8 0 4v32c0 2.2 1.8 4 4 4h32c2.2 0 4-1.8 4-4V4c0-2.2-1.8-4-4-4zM1.7 4c0-1.3 1-2.3 2.3-2.3h32c1.3 0 2.3 1 2.3 2.3v2.3H1.7V4zm36.6 32c0 1.3-1 2.3-2.3 2.3H4c-1.3 0-2.3-1-2.3-2.3V8.1h36.6V36z" style="fill:#0974f4"/></svg>