<svg xmlns="http://www.w3.org/2000/svg" xml:space="preserve" style="enable-background:new 0 0 24 40" viewBox="0 0 24 40"><path d="M24 3.7v32.6c0 2-1.6 3.7-3.6 3.7H3.6c-2 0-3.6-1.7-3.6-3.7V3.7C0 1.7 1.6 0 3.6 0h16.7C22.4 0 24 1.7 24 3.7zM6.8 2.1l.7 1.6h9l.7-1.6H6.8zm15.1 1.6c0-.9-.7-1.6-1.6-1.6h-.8l-1.4 3.1c-.2.4-.5.6-.9.6H6.8c-.4 0-.8-.2-.9-.6L4.5 2.1h-.9c-.9 0-1.6.7-1.6 1.6v32.6c0 .9.7 1.6 1.6 1.6h16.7c.9 0 1.6-.7 1.6-1.6V3.7zm-7.1 30.9H9.2c-.6 0-1 .5-1 1.1 0 .6.5 1.1 1 1.1h5.7c.6 0 1-.5 1-1.1 0-.7-.5-1.1-1.1-1.1z" style="fill:#0974f4"/><path d="m9.3 23.3 3.6-7.2c.3-.5.9-.7 1.4-.5.5.3.7.9.5 1.4l-3.6 7.2c-.2.4-.5.6-.9.6-.2 0-.3 0-.5-.1-.6-.3-.8-.9-.5-1.4zm7.6-5.2c-.4-.4-1.1-.4-1.5 0-.4.4-.4 1.1 0 1.5l1.5 1.6-1.5 1.6c-.4.4-.4 1.1 0 1.5.2.2.5.3.7.3.3 0 .5-.1.7-.3l2.3-2.3c.4-.4.4-1.1 0-1.5l-2.2-2.4zm-8.3 2-1.5-1.6L8.6 17c.4-.4.4-1.1 0-1.5-.4-.4-1.1-.4-1.5 0l-2.3 2.3c-.4.4-.4 1.1 0 1.5l2.3 2.3c.2.2.5.3.7.3.3 0 .5-.1.7-.3.5-.4.5-1.1.1-1.5z" style="fill:#01d9a2"/></svg>