<svg xmlns="http://www.w3.org/2000/svg" xml:space="preserve" style="enable-background:new 0 0 40.3 36.4" viewBox="0 0 40.3 36.4"><path d="M20.2 36.4c-3.9 0-7.6-1.2-10.7-3.5-3.1-2.3-5.4-5.5-6.6-9.2-.8 0-1.5-.3-2-.8s-.8-1.3-.8-2v-5.3c0-.8.3-1.5.8-2s1.3-.8 2-.8c.6-2.1 1.7-4 3-5.7C7.6 4.8 9.7 3 12.2 1.8 14.7.6 17.4 0 20.2 0s5.5.6 7.9 1.8c2.5 1.2 4.6 3 6.3 5.1 1.3 1.7 2.4 3.7 3 5.7.8 0 1.5.3 2 .8s.8 1.3.8 2v5.3c0 .8-.3 1.5-.8 2s-1.3.8-2 .8c-1.2 3.7-3.5 6.9-6.6 9.1-3 2.5-6.8 3.8-10.6 3.8zm.9-1.9c1.5-.5 3-2.2 4.1-4.8h-4.1v4.8zm-5.9-4.8c1.1 2.6 2.6 4.3 4.1 4.8v-4.8h-4.1zm-6.7 0c2 2 4.5 3.5 7.3 4.3-1.1-1.3-1.9-2.7-2.5-4.3H8.5zm18.6 0c-.6 1.6-1.4 3-2.5 4.3 2.8-.8 5.3-2.3 7.3-4.3h-4.8zm6.3-1.7c1-1.3 1.7-2.7 2.3-4.3h-7c-.2 1.4-.5 2.9-.9 4.3h5.6zm-7.5 0c.5-1.4.8-2.8 1-4.3h-5.8V28h4.8zm-6.6 0v-4.3h-5.8c.2 1.4.5 2.9 1 4.3h4.8zm-6.6 0c-.4-1.4-.7-2.8-.9-4.3h-7c.5 1.5 1.3 3 2.3 4.3h5.6zM2.9 14.4c-.1 0-.3 0-.4.1-.1.1-.3.1-.4.2-.1.1-.2.3-.3.4-.1.1-.1.3-.1.4v5.3c0 .1 0 .3.1.4s.1.3.2.4c.1.1.2.2.4.2.2.2.3.2.5.2h34.7c.1 0 .3 0 .4-.1.1-.1.3-.1.4-.2.1-.1.2-.2.2-.4s.1-.3.1-.4v-5.3c0-.1 0-.3-.1-.4-.1-.1-.1-.3-.2-.4-.1-.1-.2-.2-.4-.2-.1-.1-.3-.1-.4-.1H2.9zm32.8-1.7c-.6-1.5-1.3-3-2.3-4.3h-5.7c.4 1.4.7 2.8.9 4.3h7.1zm-8.8 0c-.2-1.4-.6-2.9-1-4.3h-4.8v4.3h5.8zm-7.6 0V8.4h-4.8c-.4 1.4-.8 2.8-1 4.3h5.8zm-7.5 0c.2-1.4.5-2.9.9-4.3H7c-1 1.3-1.7 2.7-2.3 4.3h7.1zm20.1-6c-2-2.1-4.5-3.5-7.3-4.3 1.1 1.3 1.9 2.7 2.5 4.3h4.8zm-6.7 0c-1.1-2.6-2.6-4.3-4.1-4.8v4.8h4.1zm-5.9 0V1.9c-1.5.5-3 2.2-4.1 4.8h4.1zm-6 0c.6-1.6 1.4-3 2.5-4.3-2.8.7-5.3 2.2-7.3 4.3h4.8z" style="fill:#0974f4"/><path d="M12.2 21.1c-.1 0-.3 0-.4-.1l-.3-.3-1.3-2.1-1.3 2.1-.3.3c-.1.1-.3.1-.4.1-.2 0-.4-.1-.5-.2-.1-.1-.3-.3-.3-.4l-1.3-4c-.1-.2-.1-.5-.1-.7 0-.1.1-.2.2-.3.1-.1.2-.1.3-.2.2-.1.5 0 .7.1.2.1.4.3.4.5l.7 2.2 1-1.7.3-.3c.2 0 .4-.1.5-.1s.3 0 .4.1l.3.3 1 1.7.7-2.2c.1-.2.2-.4.4-.5.2-.1.4-.1.7-.1.1 0 .2.1.3.2.1.1.2.2.2.3.1.2.1.4.1.7l-1.3 4c-.1.2-.1.3-.3.4-.1.1-.3.1-.4.2zM22.2 21.1c-.1 0-.3 0-.4-.1l-.3-.3-1.3-2.1-1.3 2.1-.3.3c-.1.1-.3.1-.4.1-.2 0-.4-.1-.5-.2-.1-.1-.3-.3-.3-.4l-1.3-4c-.1-.2-.1-.5 0-.7 0-.1.1-.2.2-.3.1-.1.2-.1.3-.2.2-.1.5 0 .7.1.2.1.4.3.4.5l.7 2.2 1-1.7.3-.3c.1-.1.3-.1.4-.1s.3 0 .4.1l.3.3 1 1.7.7-2.2c.1-.2.2-.3.3-.4.1-.1.3-.2.5-.2h.3c.1 0 .2.1.3.2.1.1.2.2.2.3.1.2.1.4 0 .7l-1.3 4c-.1.2-.2.3-.3.4.1 0-.1.1-.3.2zM32.2 21.1c-.1 0-.3 0-.4-.1l-.3-.3-1.3-2.1-1.3 2.1-.3.3c-.1.1-.3.1-.4.1-.2 0-.4-.1-.5-.2-.1-.1-.3-.3-.3-.4l-1.3-4c-.1-.2-.1-.5 0-.7.1-.1.1-.2.2-.3.1-.1.2-.1.3-.2h.3c.2 0 .4.1.5.2.1.1.3.3.3.4l.7 2.2 1-1.7.3-.3c.1-.1.3-.1.4-.1s.3 0 .4.1l.3.3 1 1.7.7-2.2c.1-.2.2-.3.3-.4.1-.1.3-.2.5-.2s.3 0 .5.1c.1.1.3.2.3.4.1.2.1.4 0 .7l-1.3 4c-.1.2-.2.3-.3.4 0 .1-.2.2-.3.2z" style="fill:#01d9a2"/></svg>