<svg xmlns="http://www.w3.org/2000/svg" xml:space="preserve" style="enable-background:new 0 0 39.8 39.4" viewBox="0 0 39.8 39.4"><path d="M19.9 31.1c-2.3 0-4.5-.7-6.3-1.9-1.9-1.3-3.3-3-4.2-5.1-.9-2.1-1.1-4.4-.6-6.6.4-2.2 1.5-4.3 3.1-5.8s3.6-2.7 5.8-3.1c2.2-.4 4.5-.2 6.6.6 2.1.9 3.9 2.3 5.1 4.2 1.3 1.9 1.9 4.1 1.9 6.3 0 3-1.2 5.9-3.3 8.1s-5.1 3.3-8.1 3.3zm-3.8-10.2c.1 2 .5 4 1.3 5.9.7 1.6 1.7 2.6 2.5 2.6s1.8-1 2.5-2.6c.8-1.9 1.2-3.9 1.3-5.9v-.3h-7.6v.3zm-5.8 0c.2 1.6.8 3.1 1.7 4.4.9 1.3 2.2 2.4 3.6 3.1l.8.4-.4-.8c-.1-.1-.1-.3-.2-.5-.9-2.1-1.4-4.4-1.4-6.6v-.3h-4.1v.3zm15.1 0c-.1 2.3-.5 4.5-1.4 6.6-.1.2-.1.3-.2.5l-.4.8.8-.4c1.4-.7 2.7-1.8 3.6-3.1.9-1.3 1.5-2.8 1.7-4.4v-.3h-4.1v.3zm-1.6-9.4.2.4c.9 2.1 1.4 4.4 1.4 6.7v.3h4.1v-.3c-.2-1.6-.8-3.1-1.7-4.4-.9-1.3-2.2-2.4-3.6-3.1l-.8-.4.4.8zM19.9 10c-.9 0-1.8 1-2.5 2.6-.8 1.9-1.2 3.9-1.3 5.9v.3h7.6v-.3c-.1-2-.5-4-1.3-5.9-.7-1.6-1.6-2.6-2.5-2.6zm-4.3 1c-1.4.7-2.7 1.8-3.6 3.1-.9 1.3-1.5 2.8-1.7 4.4v.3h4.1v-.3c.1-2.3.5-4.5 1.4-6.7l.2-.4.4-.8-.8.4z" style="fill:#0974f4"/><path d="M9.1 9.8c-.1 0-.2 0-.3-.1-.1 0-.2-.1-.3-.2L5.7 6.7l-.2.1c-.6.3-1.1.4-1.7.4-.7 0-1.4-.2-2-.6C1.2 6.2.7 5.7.5 5 .2 4.3.1 3.6.2 2.9c.1-.7.5-1.3 1-1.9.5-.5 1.1-.8 1.9-1 .7-.1 1.4 0 2.1.3.6.3 1.2.7 1.6 1.3.4.6.6 1.3.6 2 0 .6-.1 1.1-.4 1.7l-.1.2 2.3 2.2.2-.2C12.3 5 16 3.6 19.9 3.6c.2 0 .4.1.6.3.1.2.2.4.2.6 0 .2-.1.4-.2.6-.1.2-.3.3-.6.3-1.9 0-3.8.4-5.5 1.1s-3.3 1.8-4.7 3.1c-.1.1-.3.2-.6.2zM3.8 1.7c-.4 0-.7.1-1 .3-.4.2-.6.5-.7.9s-.2.7-.1 1 .2.7.5 1c.3.3.6.4 1 .5.4.1.7 0 1.1-.1.3-.1.6-.4.8-.7.2-.3.3-.7.3-1 0-.5-.2-1-.5-1.3-.4-.4-.9-.6-1.4-.6zM36 39.4c-1 0-1.9-.4-2.5-1.1-.7-.7-1.1-1.6-1.1-2.5 0-.6.1-1.1.4-1.7l.1-.2-2.3-2.2-.2.2c-2.9 2.5-6.7 3.9-10.5 3.9-.2 0-.4-.1-.6-.3-.1-.2-.2-.4-.2-.6 0-.2.1-.4.2-.6.1-.2.3-.3.6-.3 1.9 0 3.8-.4 5.5-1.1 1.7-.7 3.3-1.8 4.7-3.1.2-.2.4-.3.6-.3.2 0 .4.1.6.3l2.9 2.8.2-.1c.5-.3 1.1-.4 1.7-.4.5 0 1 0 1.4.2.5.2.9.4 1.2.8.4.3.6.7.8 1.2.2.5.3.9.3 1.4 0 .5-.1 1-.3 1.4-.2.5-.5.9-.8 1.2-.4.3-.8.6-1.2.8-.5.3-1 .3-1.5.3zm0-5.5c-.4 0-.7.1-1 .3-.3.2-.5.5-.7.8-.1.3-.2.7-.1 1.1.1.4.3.7.5.9.3.3.6.4 1 .5.4.1.7 0 1.1-.1.3-.1.6-.4.8-.7.2-.3.3-.7.3-1 0-.2-.1-.5-.1-.7-.1-.2-.2-.4-.4-.6-.2-.2-.4-.3-.6-.4-.3 0-.6-.1-.8-.1zM3.8 39.4c-.5 0-1 0-1.4-.2-.5-.2-.9-.4-1.2-.8-.4-.3-.6-.7-.8-1.2-.3-.4-.4-.9-.4-1.4 0-.5.1-1 .3-1.4.2-.5.5-.9.8-1.2.4-.3.8-.6 1.2-.8.5-.2.9-.2 1.4-.2.6 0 1.1.1 1.7.4l.2.1 2.2-2.3-.2-.2c-2.5-2.9-3.9-6.7-3.9-10.5 0-.2.1-.4.3-.6.2-.1.4-.2.6-.2.2 0 .4.1.6.2.2.1.3.3.3.6 0 1.9.4 3.8 1.1 5.5.7 1.7 1.8 3.3 3.1 4.7.2.1.3.3.3.6 0 .2-.1.5-.3.6L6.8 34l.2.1c.3.5.4 1.1.4 1.7 0 1-.4 1.9-1.1 2.5-.6.7-1.5 1.1-2.5 1.1zm0-5.5c-.4 0-.7.1-1 .3-.3.2-.6.5-.7.8-.1.3-.2.7-.1 1.1.1.4.3.7.5 1 .3.3.6.4 1 .5.4.1.7 0 1.1-.1.3-.1.6-.4.8-.7.2-.3.3-.7.3-1 0-.5-.2-1-.5-1.3-.4-.4-.9-.6-1.4-.6zM35.1 20.6c-.2 0-.5-.1-.6-.3-.2-.2-.3-.4-.3-.6 0-1.9-.4-3.8-1.1-5.5-.7-1.7-1.8-3.3-3.1-4.7-.2-.2-.3-.4-.3-.6s.1-.5.3-.6l2.8-2.8-.1-.2c-.3-.5-.4-1.1-.4-1.7 0-.7.2-1.4.6-2 .4-.6 1-1.1 1.6-1.3.8-.3 1.5-.4 2.2-.2.7.1 1.3.5 1.9 1 .5.5.8 1.1 1 1.9.1.7.1 1.4-.2 2.1-.4.6-.8 1.1-1.4 1.5-.6.4-1.3.6-2 .6-.6 0-1.1-.1-1.7-.4l-.2-.1L31.9 9l.2.2c2.5 2.9 3.9 6.7 3.9 10.5 0 .2-.1.5-.3.6-.1.2-.3.3-.6.3zM36 1.7c-.4 0-.7.1-1 .3s-.5.5-.7.8c-.1.3-.2.7-.1 1.1.1.4.3.7.5.9.3.3.6.4.9.5.4.1.7 0 1.1-.1s.6-.4.8-.7c.2-.3.3-.7.3-1 0-.3 0-.5-.1-.7-.1-.2-.2-.4-.4-.6-.2-.2-.4-.3-.6-.4-.2 0-.5-.1-.7-.1z" style="fill:#01d9a2"/></svg>