<svg xmlns="http://www.w3.org/2000/svg" xml:space="preserve" style="enable-background:new 0 0 40 40" viewBox="0 0 40 40"><path d="M14 2c-.3 0-.5.1-.7.3-.2.2-.3.4-.3.7v2.9c-.5.2-.9.4-1.4.6L9.5 4.4c-.2-.1-.4-.2-.7-.2s-.5.1-.7.2l-5.7 5.7c-.2.2-.3.4-.3.7 0 .3.1.5.3.7l2.1 2.1c-.2.5-.4.9-.6 1.4H1c-.3 0-.5.1-.7.3s-.3.4-.3.7v8c0 .3.1.5.3.7s.4.3.7.3h2.9c.2.5.4.9.6 1.4l-2.1 2.1c-.2.2-.3.4-.3.7 0 .3.1.5.3.7l5.7 5.7c.2.2.4.3.7.3s.5-.1.7-.3l2.1-2.1c.5.2.9.4 1.4.6V37c0 .3.1.5.3.7s.4.3.7.3h4c.3 0 .5-.1.7-.3s.3-.4.3-.7v-9.3c0-.2 0-.3-.1-.4-.1-.1-.2-.3-.3-.4-.1-.1-.3-.2-.4-.2h-.5c-.5.2-1.1.3-1.7.3-3.9 0-7-3.1-7-7s3.1-7 7-7c.6 0 1.2.1 1.8.2h.5c.1 0 .3-.1.4-.2.1-.1.2-.2.3-.4.1-.1.1-.3.1-.4V3c0-.3-.1-.5-.3-.7-.3-.2-.5-.3-.8-.3h-4zm1 2h2v7.1c-.3 0-.7-.1-1-.1-5 0-9 4-9 9s4 9 9 9c.3 0 .7-.1 1-.1V36h-2v-2.6c0-.2-.1-.4-.2-.6-.1-.2-.3-.3-.5-.4-.8-.3-1.7-.6-2.4-1-.2-.1-.4-.1-.6-.1s-.4.1-.6.3l-1.9 1.9-4.2-4.2 1.9-1.9c.2-.2.3-.4.3-.6 0-.2 0-.4-.1-.6-.4-.8-.8-1.6-1-2.4-.1-.2-.2-.4-.4-.5-.3-.2-.5-.3-.7-.3H2v-6h2.6c.2 0 .4-.1.6-.2.2-.1.3-.3.4-.5.3-.8.6-1.7 1-2.4.1-.2.1-.4.1-.6 0-.2-.1-.4-.3-.6l-1.9-1.9 4.2-4.2 1.9 1.9c.2.2.4.3.6.3.2 0 .4 0 .6-.1.8-.4 1.6-.8 2.4-1 .2-.1.4-.2.5-.4.2-.3.3-.5.3-.7V4z" style="fill:#0974f4"/><path d="M36 0c-2.2 0-4 1.8-4 4 0 1.9 1.3 3.4 3 3.9V19H17v-1h10c.3 0 .5-.1.7-.3s.3-.4.3-.7v-4.2c1.2-.4 2-1.5 2-2.8 0-1.6-1.4-3-3-3s-3 1.4-3 3c0 1.3.8 2.4 2 2.8V16h-9c0-.3-.1-.5-.3-.7s-.4-.3-.7-.3c-2.7 0-5 2.3-5 5s2.3 5 5 5c.3 0 .5-.1.7-.3s.3-.4.3-.7h14v8.1c-1.7.4-3 2-3 3.9 0 2.2 1.8 4 4 4s4-1.8 4-4c0-1.9-1.3-3.4-3-3.9V23c0-.3-.1-.5-.3-.7s-.4-.3-.7-.3H17v-1h19c.3 0 .5-.1.7-.3s.3-.4.3-.7V7.9c1.7-.4 3-2 3-3.9 0-2.2-1.8-4-4-4zm0 2c1.1 0 2 .9 2 2s-.9 2-2 2-2-.9-2-2 .9-2 2-2zm-9 7c.6 0 1 .4 1 1s-.4 1-1 1-1-.4-1-1 .4-1 1-1zm-12 8.4v5.2c-1.1-.4-2-1.3-2-2.6s.9-2.2 2-2.6zM32 34c1.1 0 2 .9 2 2s-.9 2-2 2-2-.9-2-2 .9-2 2-2z" style="fill:#01d9a2"/></svg>