<svg xmlns="http://www.w3.org/2000/svg" xml:space="preserve" style="enable-background:new 0 0 30 50" viewBox="0 0 30 50"><path d="M30 4.6v40.8c0 2.5-2 4.6-4.5 4.6h-21C2 50 0 47.9 0 45.4V4.6C0 2.1 2 0 4.5 0h20.9C28 0 30 2.1 30 4.6zm-21.6-2 .9 2h11.3l.9-2H8.4zm19 2c0-1.1-.9-2-1.9-2h-1.1l-1.8 3.8c-.2.5-.7.8-1.2.8H8.5c-.5 0-1-.3-1.2-.8L5.6 2.6H4.5c-1.1 0-1.9.9-1.9 2v40.8c0 1.1.9 2 1.9 2h20.9c1.1 0 1.9-.9 1.9-2V4.6zm-8.8 38.6h-7.1c-.7 0-1.3.6-1.3 1.3 0 .7.6 1.3 1.3 1.3h7.1c.7 0 1.3-.6 1.3-1.3 0-.7-.6-1.3-1.3-1.3z" style="fill:#0974f4"/><path d="m11.6 29.1 4.5-9c.3-.6 1.1-.9 1.7-.6.6.3.9 1.1.6 1.8l-4.5 9c-.2.5-.7.7-1.2.7-.2 0-.4 0-.6-.1-.6-.4-.9-1.2-.5-1.8zm9.5-6.5c-.5-.5-1.3-.5-1.8 0s-.5 1.3 0 1.9l1.9 2-1.9 2c-.5.5-.5 1.3 0 1.9.3.3.6.4.9.4s.7-.1.9-.4l2.8-2.9c.5-.5.5-1.3 0-1.9l-2.8-3zm-10.3 2.6-1.9-2 1.9-2c.5-.5.5-1.3 0-1.9-.5-.5-1.3-.5-1.8 0l-2.8 2.9c-.5.5-.5 1.3 0 1.9L8.9 27c.3.3.6.4.9.4.3 0 .7-.1.9-.4.6-.5.6-1.3.1-1.8z" style="fill:#01d9a2"/></svg>