<svg xmlns="http://www.w3.org/2000/svg" xml:space="preserve" style="enable-background:new 0 0 43 50" viewBox="0 0 43 50"><path d="M28.4 20.9H15.6c-.5 0-.9-.4-.9-.9s.4-.9.9-.9h12.8c.5 0 .9.4.9.9s-.4.9-.9.9zM28.4 30H15.6c-.5 0-.9-.4-.9-.9s.4-.9.9-.9h12.8c.5 0 .9.4.9.9s-.4.9-.9.9z" style="fill:#01d9a2"/><path d="M16.5 5c.5 0 .9-.4.9-.9s-.4-.9-.9-.9-.9.4-.9.9.4.9.9.9z" style="fill:#0974f4"/><path d="m5.7 21.4-1.3-1.6c-.3-.4-.3-1 .1-1.3.4-.3 1-.3 1.3.1l1 1.1 4.1-4c.4-.3.9-.3 1.3 0 .3.4.3.9 0 1.3l-4.5 4.4c-.6.6-1.4.6-2 0 0 .1 0 .1 0 0zM5.7 30.5l-1.3-1.6c-.3-.4-.3-1 .1-1.3.4-.3 1-.3 1.3.1l1 1.1 4.1-4c.4-.3.9-.3 1.3 0 .3.4.3.9 0 1.3l-4.5 4.4c-.6.6-1.4.6-2 0 0 .1 0 .1 0 0zM6.6 40.5l-1.3-1.6c-.3-.4-.3-1 .1-1.3.4-.3 1-.3 1.3.1l1 1.1 4.1-4c.4-.3.9-.3 1.3 0 .3.4.3.9 0 1.3l-4.5 4.4c-.6.6-1.4.6-2 0 0 .1 0 .1 0 0z" style="fill:#01d9a2"/><path d="M32.9 41.8c-2 0-3.7-1.6-3.7-3.6s1.6-3.6 3.7-3.6c2 0 3.7 1.6 3.7 3.6s-1.6 3.6-3.7 3.6zm0-5.4c-1 0-1.8.8-1.8 1.8s.8 1.8 1.8 1.8 1.8-.8 1.8-1.8c.1-1-.8-1.8-1.8-1.8z" style="fill:#0974f4"/><path d="M43 40c0-5.5-4.5-10-10.1-10V9.1c0-1.5-1.2-2.7-2.7-2.7h-3.7v-.9c0-1-.8-1.8-1.8-1.8h-2.5C20.7.5 16.9-.8 13.7.7c-1.3.6-2.4 1.7-3.1 3H8.2c-1 0-1.8.8-1.8 1.8v.9H2.7C1.2 6.4 0 7.6 0 9.1v36.4c0 1.5 1.2 2.7 2.7 2.7h24.4c3.8 2.6 8.8 2.4 12.3-.6l.1-.1c2.3-1.9 3.5-4.6 3.5-7.5zm-1.8 0c0 2-.8 4-2.1 5.4-3-3.4-8.2-3.6-11.6-.6l-.6.6c-3-3.4-2.7-8.5.6-11.5 3.4-3 8.6-2.7 11.6.6 1.3 1.5 2.1 3.5 2.1 5.5zM8.2 5.5h3.1c.4 0 .7-.3.9-.6.8-2.4 3.4-3.7 5.8-2.8 1.3.5 2.3 1.5 2.8 2.8.1.4.5.6.9.6h3.1v3.6H8.2V5.5zm-6.4 40V9.1c0-.5.4-.9.9-.9h3.7v.9c0 1 .8 1.8 1.8 1.8h16.5c1 0 1.8-.8 1.8-1.8v-.9h3.7c.5 0 .9.4.9.9v21.1c-4.1.8-7.3 3.9-8.1 8h-7.5c-.5 0-.9.4-.9.9s.4.9.9.9h7.3c0 2.3.8 4.6 2.3 6.4H2.7c-.5 0-.9-.4-.9-.9zm26.4 1.2c2.4-2.6 6.4-2.8 9-.5l.5.5c-2.8 2-6.7 2-9.5 0z" style="fill:#0974f4"/></svg>