<svg xmlns="http://www.w3.org/2000/svg" xmlns:xlink="http://www.w3.org/1999/xlink" xml:space="preserve" style="enable-background:new 0 0 50 50" viewBox="0 0 50 50"><defs><path id="a" d="M0 0h50v50H0z"/></defs><clipPath id="b"><use xlink:href="#a" style="overflow:visible"/></clipPath><g style="clip-path:url(#b)"><path d="M33.6.5c-9 0-16.4 7.4-16.4 16.4 0 2 .3 3.9 1 5.7.1.4.6.6.9.4.4-.1.6-.6.4-.9-.5-1.4-.8-2.9-.9-4.5h4.8c0 1.7.2 3.3.6 4.9.1.4.5.6.9.6.4-.1.6-.5.6-.9-.3-1.5-.5-3-.6-4.6h7.9v14.9c0 .4.3.7.7.7 9 0 16.4-7.4 16.4-16.4C50 7.9 42.6.5 33.6.5zm12.7 24.3h-3.8c.7-2.2 1.2-4.6 1.2-7.1h4.8c-.1 2.5-.9 5-2.2 7.1zM32.9 2v5.5h-6c.2-.5.5-.9.7-1.4 1.5-2.3 3.3-3.8 5.3-4.1zm1.4 0c2 .3 3.8 1.7 5.3 4.2.3.4.5.9.7 1.4h-6V2zM41 9c.8 2.1 1.2 4.6 1.3 7.1h-7.9V9H41zm2.7 7.2c-.1-2.5-.5-5-1.2-7.1h3.8c1.3 2.1 2.1 4.5 2.2 7.1h-4.8zm1.5-8.7h-3.3c-.3-.7-.7-1.4-1.1-2.1-.6-1-1.2-1.8-1.9-2.5 2.6 1 4.7 2.6 6.3 4.6zM28.2 3c-.7.7-1.3 1.5-1.9 2.5-.4.7-.8 1.4-1.1 2.1H22c1.6-2.1 3.8-3.7 6.2-4.6zm-7.3 6h3.8c-.7 2.2-1.2 4.6-1.2 7.1h-4.8c.1-2.6.9-5 2.2-7.1zm4.1 7.2c.1-2.6.5-5 1.3-7.1h6.6v7.1H25zm17.3 1.4c-.1 2.6-.5 5-1.3 7.1h-6.6v-7.1h7.9zm-8 14.2v-5.5h6c-.2.5-.5.9-.7 1.4-1.4 2.3-3.3 3.8-5.3 4.1zm4.7-1c.7-.7 1.3-1.5 1.9-2.5.4-.7.8-1.4 1.1-2.1h3.3c-1.7 2.1-3.8 3.7-6.3 4.6z" style="fill:#01d9a2"/><path d="M30.5 24.8h-24L5.9 23c-.4-1.3-1.6-2.1-2.9-2.1H.7c-.4 0-.7.3-.7.7 0 .4.3.7.7.7H3c.7 0 1.3.4 1.5 1.1l4.9 14.7c.2.6.5 1.1.9 1.5l-1.9 4.1c-.2 0-.4-.1-.6-.1-1.7 0-3.1 1.4-3.1 3.1s1.4 3.1 3.1 3.1c1.4 0 2.7-1 3-2.3h14.4c.3 1.3 1.5 2.3 3 2.3 1.7 0 3.1-1.4 3.1-3.1s-1.4-3.1-3.1-3.1c-1.4 0-2.7 1-3 2.3H10.8c-.2-.7-.5-1.2-1.1-1.7l1.8-3.8c.5.2 1 .3 1.5.3h.6L28 38.4c1.9-.3 3.3-1.9 3.3-3.8v-9.1c-.1-.4-.4-.7-.8-.7zM7.8 48.3c-.9 0-1.6-.7-1.6-1.6S6.9 45 7.8 45s1.6.7 1.6 1.6-.7 1.7-1.6 1.7zM28.1 45c.9 0 1.6.7 1.6 1.6 0 .9-.7 1.6-1.6 1.6s-1.6-.7-1.6-1.6c0-.9.7-1.6 1.6-1.6zm1.6-10.4c0 1.2-.8 2.2-2 2.4l-14.3 2.3c-1.2.2-2.3-.5-2.7-1.6L7 26.2h22.8v8.4z" style="fill:#0974f4"/><path d="M26.6 35.4c.4 0 .7-.3.7-.7v-6c0-.4-.3-.7-.7-.7-.4 0-.7.3-.7.7v6c-.1.4.3.7.7.7zM22.7 36c.4 0 .7-.3.7-.7v-6.7c0-.4-.3-.7-.7-.7-.4 0-.7.3-.7.7v6.7c-.1.4.2.7.7.7zM18.7 36.6c.4 0 .7-.3.7-.7v-7.3c0-.4-.3-.7-.7-.7-.4 0-.7.3-.7.7v7.3c0 .4.3.7.7.7zM14.8 37.3c.4 0 .7-.3.7-.7v-7.9c0-.4-.3-.7-.7-.7s-.7.3-.7.7v7.9c0 .4.3.7.7.7zM10.9 30.9c.4 0 .7-.3.7-.7v-1.6c0-.4-.3-.7-.7-.7s-.7.3-.7.7v1.6c0 .4.3.7.7.7z" style="fill:#0974f4"/></g></svg>