<svg xmlns="http://www.w3.org/2000/svg" xml:space="preserve" style="enable-background:new 0 0 49.4 39.4" viewBox="0 0 49.4 39.4"><path d="M16.9 39.4c-1.3.1-2.5-.4-3.5-1.2-.9-.9-1.5-2.1-1.6-3.3V4.6c.1-1.3.6-2.5 1.6-3.3.9-.9 2.2-1.3 3.5-1.2h15.6c1.3-.2 2.5.3 3.5 1.2.9.9 1.5 2.1 1.6 3.3v30.2c-.1 1.3-.6 2.5-1.6 3.3-1 .9-2.2 1.3-3.5 1.2H16.9zm0-37.3c-.7 0-1.4.2-1.9.7-.5.5-.8 1.1-.9 1.8v30.2c0 .7.3 1.4.9 1.8.5.5 1.2.7 1.9.7h15.6c.7 0 1.4-.2 1.9-.7.5-.5.8-1.1.9-1.8V4.6c0-.7-.3-1.4-.9-1.8s-1.2-.8-1.9-.7H16.9z" style="fill:#0974f4"/><path d="M22.8 34.1c-.3 0-.5-.1-.7-.3-.2-.2-.3-.5-.3-.7 0-.3.1-.5.3-.7.2-.2.5-.3.7-.3h4c.3 0 .5.1.7.3.2.2.3.5.3.7 0 .3-.1.5-.3.7-.2.2-.5.3-.7.3h-4zM22.8 7.4c-.3 0-.6-.1-.8-.3-.2-.2-.4-.5-.4-.7 0-.3.2-.5.4-.7.2-.2.5-.3.8-.3h4c.3 0 .6.1.8.3.2.2.4.5.4.7 0 .3-.2.6-.4.7-.2.2-.5.3-.8.3h-4z" style="fill:#0974f4"/><path d="M46.3 28.7c-.2 0-.4 0-.6-.1-.1-.1-.3-.2-.3-.3-.1-.1-.2-.2-.2-.4 0-.1-.1-.3 0-.4 0-.1.1-.3.1-.4 1.2-2.3 1.9-4.9 1.8-7.5.1-2.6-.6-5.2-1.8-7.5-.1-.1-.1-.2-.1-.4v-.4c0-.1.1-.3.2-.4l.3-.3c.2-.1.4-.1.6-.1.2 0 .4.1.6.1.2.1.3.2.4.4 1.4 2.6 2.2 5.5 2.1 8.5.1 3-.7 5.9-2.1 8.5-.1.2-.3.3-.4.4-.2.3-.4.3-.6.3zM41.4 26.1c-.2 0-.4-.1-.6-.2l-.3-.3c-.1-.1-.2-.2-.2-.4v-.4c0-.1.1-.2.1-.4.9-1.4 1.3-3.1 1.3-4.8 0-1.7-.4-3.4-1.3-4.8-.1-.1-.1-.2-.1-.4V14c0-.1.1-.3.2-.4l.3-.3c.2-.1.4-.2.6-.2.2 0 .4 0 .6.1.2.1.3.2.4.4 1.1 1.8 1.7 3.8 1.6 5.9 0 2.1-.5 4.1-1.6 5.9-.1.2-.3.3-.4.4-.2.2-.4.3-.6.3zM3.1 28.7c-.2 0-.4 0-.6-.1-.2-.1-.3-.2-.4-.4C.7 25.6 0 22.7 0 19.7c-.1-3 .7-5.9 2.1-8.5.1-.2.3-.3.4-.4.2-.1.4-.1.6-.1.2 0 .4 0 .6.1.1.1.3.2.3.3.1.1.2.2.2.4v.4c0 .1-.1.3-.1.4-1.2 2.3-1.8 4.9-1.8 7.5-.1 2.6.6 5.2 1.8 7.5.1.1.1.2.1.4v.4c0 .1-.1.3-.2.4l-.3.3c-.2-.1-.4-.1-.6-.1zM8 26.1c-.2 0-.4 0-.6-.1s-.3-.3-.4-.4c-1.1-1.8-1.7-3.8-1.6-5.9 0-2.1.5-4.1 1.6-5.9.1-.2.3-.3.4-.4.2-.1.4-.1.6-.1.2 0 .4.1.6.2l.3.3c.1.1.2.2.2.4v.4c0 .1-.1.2-.1.4-.9 1.4-1.3 3.1-1.3 4.8 0 1.7.4 3.4 1.3 4.8.1.2.2.5.1.7 0 .1-.1.3-.2.4l-.3.3c-.2 0-.4.1-.6.1z" style="fill:#01d9a2"/></svg>