<svg xmlns="http://www.w3.org/2000/svg" xml:space="preserve" style="enable-background:new 0 0 50 50" viewBox="0 0 50 50"><path d="M37.7 5.2c0 .5-.4 1-1 1-.5 0-1-.4-1-1s.4-1 1-1 1 .4 1 1z" style="fill:#0974f4"/><path d="M38.8 13.8 10 25.1c-.4.1-.6.5-.6.9s.2.8.6.9l5.6 2.2c.6 1.6 3.6 8.9 3.6 9 .3.6 1.1.8 1.6.3l4.4-4.4 8 6.4c.6.4 1.4.2 1.6-.6L40.1 15c.2-.8-.6-1.5-1.3-1.2zm-10.3 6.1-12.2 7.3L13 26l15.5-6.1zm2.9.6-10 9.1c-.1.1-.2.3-.3.5l-1.2 4.5-2.3-5.9 13.8-8.2zM22.6 32l1 .8-1.6 1.6.6-2.4zm10.6 5.9c-1.9-1.5-7.9-6.2-9.6-7.6l14-12.8-4.4 20.4z" style="fill:#01d9a2"/><path d="M45.1 0H4.9C2.2 0 0 2.2 0 4.9v40.2C0 47.8 2.2 50 4.9 50h40.2c2.7 0 4.9-2.2 4.9-4.9V4.9C50 2.2 47.8 0 45.1 0zM48 45.1c0 1.6-1.3 2.9-2.9 2.9H4.9C3.3 48 2 46.7 2 45.1V4.9C2 3.3 3.3 2 4.9 2h40.2C46.7 2 48 3.3 48 4.9v40.2z" style="fill:#0974f4"/><path d="M13.3 6.2h19.5c.5 0 1-.4 1-1s-.4-1-1-1H13.3c-.5 0-1 .4-1 1s.4 1 1 1z" style="fill:#0974f4"/></svg>