<svg xmlns="http://www.w3.org/2000/svg" xml:space="preserve" style="enable-background:new 0 0 50 50" viewBox="0 0 50 50"><path d="M12.4 50c-.5 0-.9-.1-1.3-.4-.4-.2-.7-.6-.9-1l-4-6.9c-.4.1-.8.2-1.3.2-1.1 0-2.1-.4-3-1.1C1 40.1.4 39.1.2 38.1c-.4-1.3-.2-2.7.5-3.9.3-.6.7-1.1 1.2-1.5.5-.4 1.1-.7 1.7-.9l2.3-.6c1.5-.4 3-.8 4.5-1.3 7.7-2.5 10.9-6.9 11.9-8.8l-.3-.6c-.2-.6-.1-1.3.2-1.9.2-.3.4-.5.6-.7s.5-.3.9-.4c.2-.1.4-.1.6-.1.5 0 1.1.2 1.5.5.4.3.7.8.9 1.3l2 7.5h2.5c.2 0 .4.1.5.2.2.1.3.3.3.5l1 3.7v.6c-.1.2-.2.3-.4.4l-2.2 1.3 2 7.5c.2.6.1 1.3-.3 1.9-.3.6-.9 1-1.5 1.2-.2.1-.4.1-.6.1-.5 0-1.1-.2-1.5-.5-.4-.3-.7-.8-.9-1.3l-.2-.8c-2.8-1.5-5.9-2.3-9-2.2-1.9 0-3.8.2-5.6.6-.5.1-1 .2-1.5.4l3.2 5.7c.3.6.4 1.3.3 2-.1.6-.5 1.1-.9 1.4s-.9.5-1.5.6zm-.7-2.3c.1.2.3.4.5.4h.2c.1 0 .3 0 .4-.1.1-.1.2-.1.2-.2.1-.1.1-.2.1-.3v-.3c0-.1 0-.2-.1-.3l-3.5-6.1-1.5.5 3.7 6.4zm12.7-28.5h-.2c-.1 0-.2.1-.2.1l-.2.2c-.1.2-.1.3-.1.5l5.7 21.8c0 .1.1.3.2.4.1.1.3.1.4.1h.2c.1 0 .2-.1.2-.1l.2-.2c0-.1.1-.2.1-.2v-.3L25 19.6c0-.1-.1-.2-.1-.2l-.2-.2h-.3zM10 32.1c-1.3.4-2.5.7-3.7 1l-2.3.6c-.4.1-.7.3-1.1.5s-.6.6-.8.9c-.4.8-.5 1.7-.3 2.5.2.7.5 1.3 1.1 1.7.5.4 1.2.7 1.9.7.3 0 .5 0 .8-.1l2.2-.6c1.3-.4 2.5-.7 3.8-1L10 32.1zm8.6 5.3c2.9 0 5.7.5 8.4 1.7l-4.1-15.5c-2.9 3.7-6.8 6.4-11.2 7.9l1.7 6.4c1.7-.3 3.4-.4 5.2-.5zM30 31.6l1.1-.7-.6-2.4h-1.3l.8 3.1z" style="fill:#0974f4"/><path d="M43.4 45c-.2 0-.4 0-.6-.1-.2-.1-.4-.2-.5-.4-.2-.3-.6-.6-.9-1-2.4-2.5-4.6-4.9-4.6-6.8 0-1.1.4-2.1 1.1-2.9.7-.8 1.7-1.3 2.8-1.3.5 0 1 .1 1.5.3.5.2.9.5 1.2.9.4-.4.8-.7 1.2-.9.5-.2 1-.3 1.5-.3 1.1 0 2.1.5 2.8 1.3.7.8 1.1 1.9 1.1 2.9 0 1.9-2.2 4.3-4.5 6.8l-.1.1-.9.9c-.1.2-.3.3-.5.4-.2 0-.4.1-.6.1zm-2.7-10.7c-.6 0-1.1.3-1.5.8-.4.5-.6 1-.6 1.6 0 1.3 2.7 4.1 4 5.5l.8.8.8-.8c1.3-1.4 4-4.1 4-5.5 0-.6-.2-1.2-.6-1.6-.4-.5-.9-.7-1.5-.8-.4 0-.8.1-1.1.4-.3.2-.6.6-.7 1-.1.2-.2.3-.3.4-.1.1-.3.2-.5.2s-.3-.1-.5-.1c-.1-.1-.3-.2-.3-.4-.2-.4-.4-.7-.7-1-.5-.4-.9-.5-1.3-.5zM2.9 20.6c-.8 0-1.5-.3-2.1-.9-.5-.6-.8-1.3-.8-2.1V9.2c0-.4.1-.8.2-1.1.1-.4.4-.7.6-1 .5-.6 1.3-.9 2.1-.9H16c.4 0 .8.1 1.1.2.4.1.7.4.9.6.3.3.5.6.6 1 .1.4.2.7.2 1.1v8.4c0 .8-.3 1.5-.9 2.1-.5.6-1.3.9-2.1.9H2.9zm0-12.5c-.3 0-.6.1-.8.3-.2.2-.3.5-.3.8v8.4c0 .3.1.6.3.8.2.2.5.3.8.3H16c.3 0 .6-.1.8-.3.2-.2.3-.5.3-.8V9.2c0-.3-.1-.6-.3-.8-.2-.2-.5-.3-.8-.3H2.9zM34 18.8c-.1 0-.3 0-.4-.1-.2-.1-.3-.2-.4-.3-.1-.1-.1-.3-.1-.5v-3.2h-1.3c-.9 0-1.8-.4-2.4-1-.6-.7-1-1.6-1-2.5V3.5c0-.9.4-1.8 1-2.5s1.5-1 2.4-1h14.7c.9 0 1.8.4 2.5 1 .7.7 1 1.6 1 2.5v7.6c0 .9-.4 1.8-1 2.5-.7.7-1.5 1-2.5 1h-7.3l-4.7 3.9c-.1.2-.3.3-.5.3zm-2.1-17c-.4 0-.9.2-1.2.5-.3.3-.5.8-.5 1.2v7.6c0 .2 0 .5.1.7s.2.4.4.6c.2.2.3.3.6.4.2.1.4.1.7.1h2c.2 0 .5.1.6.3.2.2.3.4.3.6v2.1l3.4-2.9c.2-.1.4-.2.6-.2h7.6c.4 0 .9-.2 1.2-.5.3-.3.5-.8.5-1.2V3.5c0-.2 0-.4-.1-.7-.1-.2-.2-.4-.4-.6-.2-.2-.3-.3-.5-.4-.2-.1-.4-.1-.6-.1H31.9zM8.5 16.9c-.3 0-.6-.1-.8-.2-.2-.1-.4-.3-.6-.6-.1-.2-.2-.5-.2-.8v-3.8c0-.4.2-.8.5-1.1.3-.3.7-.5 1.1-.5.3 0 .6.1.8.2l3.2 1.9c.2.1.4.3.6.6.1.2.2.5.2.8 0 .3-.1.6-.2.8-.1.2-.3.5-.6.6l-3.2 1.9c-.3.2-.5.2-.8.2zm.2-2 2.6-1.6-2.6-1.5v3.1zM39 11.1c-.2 0-.5-.1-.6-.3-.2-.2-.3-.4-.3-.6 0-.2.1-.5.3-.6.2-.2.4-.3.6-.3h6.5c.2 0 .5.1.6.3.2.2.3.4.3.6 0 .2-.1.5-.3.6-.2.2-.4.3-.6.3H39zm-6-2.8c-.1 0-.2 0-.3-.1-.1 0-.2-.1-.3-.2-.1-.1-.1-.2-.2-.3s-.1-.2-.1-.4 0-.2.1-.4.1-.2.2-.3c.1-.1.2-.2.3-.2s.2-.1.3-.1h12.5c.1 0 .2 0 .3.1s.2.1.3.2c.1.1.1.2.2.3 0 .1.1.2.1.4s0 .2-.1.4c0 .1-.1.2-.2.3-.1.1-.2.2-.3.2-.1 0-.2.1-.3.1H33zm0-2.9h-.4c-.1 0-.2-.1-.3-.2-.1-.1-.2-.2-.3-.4v-.3c0-.1 0-.3.1-.4.1-.1.1-.2.2-.3.1-.1.2-.2.3-.2.1 0 .2-.1.4 0h12.9c.1 0 .2.1.3.2.1.1.2.2.2.3.1.1.1.2.1.4 0 .1 0 .3-.1.4-.1.1-.1.2-.2.3-.1.1-.2.2-.3.2-.1 0-.2.1-.4 0H33z" style="fill:#01d9a2"/></svg>