<svg xmlns="http://www.w3.org/2000/svg" xml:space="preserve" style="enable-background:new 0 0 31 31" viewBox="0 0 31 31"><path d="M11.4 11.4H9.3c-.5 0-1.1.2-1.5.6-.2.2-.3.4-.5.7-.1.3-.2.5-.2.8V19.1c0 .1.1.3.2.4l.3.3c.1.1.3.1.4.1s.3 0 .4-.1c.1-.1.3-.1.3-.3.1-.1.2-.2.2-.4 0-.1.1-.3 0-.4v-1H11v1c0 .3.1.5.3.7.2.2.4.3.7.3s.5-.1.7-.3c.2-.2.3-.4.3-.7v-5.2c0-.3-.1-.5-.2-.8-.1-.3-.3-.5-.4-.7 0-.4-.5-.6-1-.6zm-2.1 4.1v-2.1h2.1v2.1H9.3zM17.6 11.4h-2.1c-.3 0-.5.1-.7.3s-.3.5-.3.7v6.2c0 .3.1.5.3.7.2.2.5.3.7.3h2.1c.8 0 1.6-.3 2.2-.9.6-.6.9-1.4.9-2.2v-2.1c0-.8-.3-1.6-.9-2.2s-1.4-.8-2.2-.8zm1 5.1c0 .3-.1.5-.3.7-.2.2-.5.3-.7.3h-1v-4.1h1c.3 0 .5.1.7.3.2.2.3.5.3.7v2.1z" style="fill:#01d9a2"/><path d="M23.2 24.8c-.3 0-.5.1-.7.3-.2.2-.3.5-.3.7 0 .8-.3 1.6-.9 2.2-.6.6-1.4.9-2.2.9H5.2c-.8 0-1.6-.3-2.2-.9-.6-.6-.9-1.4-.9-2.2V5.2c0-.9.3-1.6.9-2.2.3-.3.6-.5 1-.7.4-.2.8-.2 1.2-.2h13.9c.4 0 .8.1 1.2.2.4.2.7.4 1 .7.6.6.9 1.4.9 2.2 0 .3.1.5.3.7.2.1.5.2.8.2.3 0 .5-.1.7-.3.2-.2.3-.4.3-.7 0-1.4-.6-2.7-1.5-3.7-.5-.5-1-.9-1.7-1.1-.6-.3-1.3-.4-2-.4H5.2c-.7 0-1.4.1-2 .4C2.6.6 2 1 1.5 1.5.5 2.5 0 3.8 0 5.2v20.7c0 1.4.5 2.7 1.5 3.7s2.3 1.5 3.7 1.5h13.9c1.4 0 2.7-.5 3.7-1.5s1.5-2.3 1.5-3.7c0-.3-.1-.5-.3-.7-.2-.3-.5-.4-.8-.4z" style="fill:#fff"/><path d="M14.5 26.9h.4c.1 0 .3-.1.4-.2l.3-.3c.1-.1.1-.3.1-.4 0-.1 0-.3-.1-.4-.1-.1-.1-.3-.3-.3-.1-.1-.2-.2-.4-.2-.1 0-.3-.1-.4 0H10c-.1 0-.3.1-.4.2l-.3.3c-.1.1-.1.3-.1.4 0 .1 0 .3.1.4.1.1.1.3.3.3.1.1.2.2.4.2.1 0 .3.1.4 0h4.1zM5.2 4.1c-.3 0-.5.1-.7.3s-.3.5-.3.8c0 .3.1.5.3.7s.4.3.7.3h2.1c.3 0 .5-.1.7-.3.2-.2.3-.4.3-.7 0-.3-.1-.5-.3-.7-.3-.2-.5-.3-.8-.4h-2zM30.1 9.2c-.6-.6-1.4-.9-2.2-.9H7.2c-.8 0-1.6.3-2.2.9-.3.3-.5.6-.7 1-.2.4-.2.8-.2 1.2v8.3c0 .4.1.8.2 1.2.2.4.4.7.7 1 .6.6 1.4.9 2.2.9h20.7c.8 0 1.6-.3 2.2-.9.3-.3.5-.6.7-1 .2-.4.2-.8.2-1.2v-8.3c0-.4-.1-.8-.2-1.2-.2-.4-.4-.7-.7-1zm-1.2 10.4c0 .3-.1.5-.3.7-.2.2-.5.3-.7.3H7.2c-.3 0-.5-.1-.7-.3-.2-.2-.3-.5-.3-.7v-8.3c0-.3.1-.5.3-.7.2-.2.5-.3.7-.3h20.7c.3 0 .5.1.7.3.2.2.3.5.3.7v8.3z" style="fill:#fff"/><path d="M26.9 13.4h.4c.1 0 .3-.1.4-.2l.3-.3c.1-.1.1-.3.1-.4 0-.1 0-.3-.1-.4-.1-.1-.1-.3-.3-.3-.1-.1-.2-.2-.4-.2-.1 0-.3-.1-.4 0h-3.1c-.5 0-1.1.2-1.5.6s-.6.9-.6 1.5v1c0 .5.2 1.1.6 1.5.4.4.9.6 1.5.6h2.1v1h-3.1c-.3 0-.5.1-.7.3-.2.2-.3.4-.3.7 0 .3.1.5.3.7.2.2.4.3.7.3h3.1c.5 0 1.1-.2 1.5-.6s.6-.9.6-1.5v-1c0-.5-.2-1.1-.6-1.5-.4-.4-.9-.6-1.5-.6h-2.1v-1h3.1z" style="fill:#01d9a2"/></svg>