<svg xmlns="http://www.w3.org/2000/svg" xml:space="preserve" style="enable-background:new 0 0 31 29" viewBox="0 0 31 29"><path d="M28.8 24.7h-4c-.2-.7-.7-1.3-1.3-1.7-.6-.4-1.4-.7-2.2-.7-.8 0-1.5.2-2.2.7-.6.4-1.1 1-1.3 1.7H1c-.3 0-.5.1-.7.3-.2.1-.3.4-.3.6 0 .3.1.5.3.7.2.2.5.3.7.3h16.9c.2.7.7 1.3 1.3 1.7.6.4 1.4.7 2.2.7.8 0 1.5-.2 2.2-.7.6-.4 1.1-1 1.3-1.7h4c.3 0 .5-.1.7-.3.2-.2.3-.4.3-.7 0-.3-.1-.5-.3-.7-.3-.1-.6-.2-.8-.2zm-7.4 2.4c-.3 0-.6-.1-.9-.2-.3-.2-.5-.4-.6-.7-.1-.3-.1-.6-.1-.8.1-.3.2-.5.4-.7.2-.2.5-.3.8-.4.3-.1.6 0 .9.1.3.1.5.3.7.5.2.2.3.5.3.8 0 .4-.2.8-.5 1-.2.2-.6.4-1 .4zM27.8 0H3.2C2.4 0 1.6.3 1 .9.3 1.5 0 2.2 0 3v15.2c0 .8.3 1.6 1 2.1.6.6 1.4.9 2.3.9h24.5c.9 0 1.7-.3 2.3-.9.6-.6 1-1.3 1-2.1V3c0-.8-.3-1.6-1-2.1-.7-.6-1.5-.9-2.3-.9zm1.1 18.2c0 .3-.1.6-.3.8-.2.2-.5.3-.8.3H3.2c-.3 0-.6-.1-.8-.3-.2-.2-.3-.5-.3-.8V3c0-.3.1-.6.3-.8s.5-.3.8-.3h24.5c.3 0 .6.1.8.3.2.2.3.5.3.8v15.2z" style="fill:#fff"/><path d="M21.2 9.8 12.9 5c-.2-.1-.3-.1-.5-.1s-.4 0-.5.1c-.2.1-.3.2-.4.4-.1.1-.1.3-.1.5v9.7c0 .2 0 .3.1.5.1.1.2.3.4.4.2.1.3.1.5.1s.4-.1.5-.1l8.3-4.8c.1-.1.3-.2.4-.4.1-.1.1-.3.1-.5s0-.3-.1-.5c-.1-.3-.2-.4-.4-.5zm-7.8 3.9V7.5l5.3 3.1-5.3 3.1z" style="fill:#01d9a2"/></svg>