<svg xmlns="http://www.w3.org/2000/svg" xml:space="preserve" style="enable-background:new 0 0 31 28.7" viewBox="0 0 31 28.7"><path d="M31 .9c0-.5-.4-.9-.9-.9H.9C.4 0 0 .4 0 .9v22.2c0 .5.4.9.9.9h10l-1.1 2.8h-.5c-.5 0-.9.4-.9.9s.4.9.9.9h12.4c.5 0 .9-.4.9-.9s-.4-.9-.9-.9h-.5L20.1 24h10c.5 0 .9-.4.9-.9V.9zm-1.8.9V18H1.8V1.8h27.4zm-10 25.1h-7.4l1.1-2.8h5.2l1.1 2.8zm10-4.7H1.8v-2.4h27.4v2.4z" style="fill:#fff"/><path d="M12.5 14.7c.1.1.3.1.5.1s.3 0 .5-.1l6.8-3.9c.3-.2.5-.5.5-.8 0-.3-.2-.6-.5-.8l-6.8-3.9c-.3-.2-.6-.2-.9 0-.3.2-.5.5-.5.8V14c0 .2.1.5.4.7zm1.4-7.1L18 9.9l-4.1 2.4V7.6z" style="fill:#01d9a2"/></svg>