<svg xmlns="http://www.w3.org/2000/svg" xml:space="preserve" style="enable-background:new 0 0 31 31" viewBox="0 0 31 31"><path d="M8.1 7.3C9.3 3.1 13 0 17.5 0c5.4 0 9.6 4.5 9.6 10 0 .5.3 1 .8 1.3 1.9 1.2 3.1 3.3 3.1 5.7 0 2.2-1 4.1-2.5 5.3-1.1.9-2.5 1.4-4 1.4-.6 0-1-.5-1-1s.5-1 1-1c1 0 2-.4 2.8-1 1.1-.9 1.7-2.2 1.7-3.7 0-1.7-.9-3.2-2.2-4-1-.6-1.7-1.7-1.7-3 0-4.4-3.4-8-7.6-8C14 2 11 4.4 10.1 7.8c-.3 1-1.2 1.7-2.2 1.7-3.3 0-5.9 2.7-5.9 6.1 0 2.2 1.1 4.1 2.8 5.1 1 .6 1.9.9 2.4.9.6 0 1 .5 1 1s-.5 1-1 1c-1 0-2.4-.5-3.5-1.2C1.5 21 0 18.5 0 15.6c0-4.5 3.5-8.1 7.9-8.1.1 0 .2-.1.2-.2z" style="fill:#fff"/><path d="M17.4 30.2c0 .4-.3.8-.8.8H15c-.4 0-.8-.4-.8-.8v-1.6c0-.4.3-.8.8-.8h1.6c.4 0 .8.4.8.8v1.6zM21.1 27.5c.4 0 .8-.4.8-.8v-1.6c0-.4-.3-.8-.8-.8h-1.6c-.4 0-.8.4-.8.8v1.6c0 .4.3.8.8.8h1.6z" style="fill:#01d9a2"/><path d="M15.9 25.4c-.6 0-1-.5-1-1v-14c0-.6.5-1 1-1 .6 0 1 .5 1 1v14c0 .6-.5 1-1 1zM19.4 21.6c0 .6.5 1 1 1 .6 0 1-.5 1-1v-3.8c0-1.2.9-2.1 2.1-2.1h.4c.6 0 1-.5 1-1s-.5-1-1-1h-.4c-2.3 0-4.1 1.9-4.1 4.2v3.7z" style="fill:#fff"/><path d="M9.8 26.7c0 .4.3.8.8.8h1.6c.4 0 .8-.4.8-.8v-1.6c0-.4-.3-.8-.8-.8h-1.6c-.4 0-.8.4-.8.8v1.6z" style="fill:#01d9a2"/><path d="M12.4 21.6c0 .6-.5 1-1 1-.6 0-1-.5-1-1v-3.8c0-1.2-.9-2.1-2.1-2.1h-.5c-.6 0-1-.5-1-1s.5-1 1-1h.4c2.3 0 4.1 1.9 4.1 4.2v3.7z" style="fill:#fff"/></svg>