<svg xmlns="http://www.w3.org/2000/svg" xml:space="preserve" style="enable-background:new 0 0 31 27" viewBox="0 0 31 27"><path d="M20.5 16.4h-2.9c-.6 0-1-.5-1-1V7.5c0-.6.5-1 1-1h2.9c1.7 0 3.1 1.4 3.1 3.1v3.6c0 1.7-1.4 3.1-3.1 3.2zm-1.9-2.1h1.9c.6 0 1-.5 1-1V9.6c0-.6-.5-1-1-1h-1.9v5.7zM11.3 6.5c-1.7 0-3.1 1.4-3.1 3.1v5.7c-.1.6.4 1.1.9 1.1.6.1 1.1-.4 1.1-.9V14.6h2.2v.7c-.1.6.4 1.1.9 1.1.6.1 1.1-.4 1.1-.9V9.6c0-1.7-1.4-3.1-3.1-3.1zm-1.1 6V9.6c0-.6.5-1.1 1.1-1 .6 0 1 .5 1 1v2.9h-2.1z" style="fill:#01d9a2"/><path d="M25.8 0H5.2C2.3 0 0 2.3 0 5.2v12.5c0 2.9 2.3 5.2 5.2 5.2h9.3V25h-2.1c-.6.1-1 .6-.9 1.1 0 .5.4.9.9.9h6.2c.6-.1 1-.6.9-1.1 0-.5-.4-.9-.9-.9h-2.1v-3.1c0-.6-.5-1-1-1H5.2c-1.7 0-3.1-1.4-3.1-3.1V5.2c0-1.7 1.4-3.1 3.1-3.1h20.7c1.7 0 3.1 1.4 3.1 3.1v12.5c0 1.7-1.4 3.1-3.1 3.1h-7.2c-.6.1-1 .6-.9 1.1 0 .5.4.9.9.9h7.2c2.9 0 5.2-2.3 5.2-5.2V5.2C31 2.3 28.7 0 25.8 0z" style="fill:#fff"/></svg>