<svg xmlns="http://www.w3.org/2000/svg" xml:space="preserve" style="enable-background:new 0 0 31 31" viewBox="0 0 31 31"><path d="M30.1 21.8H18.8c-.5 0-.9-.4-.9-.9s.4-.9.9-.9h10.4V1.8H1.8V20h10.4c.5 0 .9.4.9.9s-.4.9-.9.9H.9c-.5 0-.9-.4-.9-.9V.9C0 .4.4 0 .9 0h29.2c.5 0 .9.4.9.9v20c0 .5-.4.9-.9.9z" style="fill:#fff"/><path d="M30.1 5.4H.9C.4 5.4 0 5 0 4.5s.4-.9.9-.9h29.2c.5 0 .9.4.9.9s-.4.9-.9.9z" style="fill:#fff"/><path d="M26.5 5.4c-.5 0-.9-.4-.9-.9V.9c0-.5.4-.9.9-.9s.9.4.9.9v3.6c0 .5-.4.9-.9.9zM22.8 5.4c-.5 0-.9-.4-.9-.9V.9c0-.5.4-.9.9-.9s.9.4.9.9v3.6c0 .5-.4.9-.9.9zM19.2 5.4c-.5 0-.9-.4-.9-.9V.9c0-.5.4-.9.9-.9s.9.4.9.9v3.6c0 .5-.4.9-.9.9zM17.3 31h-3.6c-.5 0-.9-.4-.9-.9v-4.7h-2.7c-.3 0-.6-.2-.8-.5-.2-.3-.2-.6 0-.9l5.4-9.1c.2-.3.5-.4.8-.4.3 0 .6.2.8.4l5.5 9.1c.2.3.2.6 0 .9-.2.3-.5.5-.8.5h-2.8v4.7c0 .5-.4.9-.9.9zm-2.7-1.8h1.8v-4.7c0-.5.4-.9.9-.9h2.1l-3.9-6.4-3.9 6.4h2c.5 0 .9.4.9.9v4.7zM26.5 9.1h-22c-.5 0-.9-.4-.9-.9s.4-.9.9-.9h21.9c.5 0 .9.4.9.9.1.5-.3.9-.8.9z" style="fill:#fff"/><path d="M26.5 12.7h-22c-.5 0-.9-.4-.9-.9s.4-.9.9-.9h21.9c.5 0 .9.4.9.9.1.5-.3.9-.8.9zM10.1 16.3H4.5c-.5 0-.9-.4-.9-.9s.4-.9.9-.9H10c.5 0 .9.4.9.9.1.5-.3.9-.8.9z" style="fill:#01d9a2"/><path d="M26.5 16.3H21c-.5 0-.9-.4-.9-.9s.4-.9.9-.9h5.4c.5 0 .9.4.9.9.1.5-.3.9-.8.9z" style="fill:#fff"/></svg>