<svg xmlns="http://www.w3.org/2000/svg" xml:space="preserve" style="enable-background:new 0 0 80 50" viewBox="0 0 80 50"><path d="M25 0C11.2 0 0 11.2 0 25s11.2 25 25 25c5.6 0 10.8-1.9 15-5 4.2 3.1 9.4 5 15 5 13.8 0 25-11.2 25-25S68.8 0 55 0c-5.6 0-10.8 1.9-15 5-4.2-3.1-9.4-5-15-5zm15.8 5.6c-.3-.2-.5-.4-.8-.6-6.1 4.6-10 11.8-10 20s3.9 15.4 10 20c.3-.2.5-.4.8-.6 4 2.9 8.9 4.6 14.2 4.6 13.3 0 24-10.7 24-24S68.3 1 55 1c-5.3 0-10.2 1.7-14.2 4.6zm0 0C46.4 10.2 50 17.2 50 25c0 7.8-3.6 14.8-9.2 19.4C34.9 40 31 32.9 31 25s3.9-15 9.8-19.4z" style="opacity:.7;fill-rule:evenodd;clip-rule:evenodd;fill:#01d9a2;enable-background:new"/></svg>